<?xml version="1.0" standalone="no"?>
<!DOCTYPE svg PUBLIC "-//W3C//DTD SVG 20010904//EN"
 "http://www.w3.org/TR/2001/REC-SVG-20010904/DTD/svg10.dtd">
<svg version="1.0" xmlns="http://www.w3.org/2000/svg"
 width="1280.000000pt" height="1007.000000pt" viewBox="0 0 1280.000000 1007.000000"
 preserveAspectRatio="xMidYMid meet">
<metadata>
Created by potrace 1.15, written by Peter Selinger 2001-2017
</metadata>
<g transform="translate(0.000000,1007.000000) scale(0.100000,-0.100000)"
fill="#000000" stroke="none">
<path d="M4061 10054 c-198 -42 -415 -210 -510 -393 -50 -96 -62 -142 -101
-386 -27 -168 -140 -895 -140 -902 0 -2 -615 -3 -1367 -3 -1162 0 -1379 -3
-1438 -15 -236 -49 -441 -251 -490 -481 -13 -60 -15 -558 -15 -3684 0 -4024
-6 -3683 71 -3840 82 -166 251 -296 435 -335 105 -22 11684 -22 11788 0 239
51 441 253 491 490 22 105 22 7265 0 7369 -45 213 -218 396 -445 473 -52 17
-129 18 -1460 23 l-1405 5 -46 330 c-66 466 -117 777 -139 841 -33 95 -82 175
-159 256 -88 94 -171 156 -273 202 -152 71 19 66 -2480 65 -1887 0 -2263 -3
-2317 -15z m4500 -794 c4 -20 42 -258 84 -529 41 -272 80 -513 85 -537 47
-207 220 -416 427 -515 34 -16 97 -39 140 -52 l78 -22 1328 -3 1327 -3 -2
-3412 -3 -3412 -5627 -3 -5628 -2 0 3415 0 3415 1258 0 c757 0 1295 4 1352 10
253 27 474 165 599 378 67 113 86 188 136 547 41 291 109 718 120 753 4 10
441 12 2162 10 l2157 -3 7 -35z"/>
<path d="M6055 7385 c-525 -58 -1012 -259 -1435 -595 -125 -98 -398 -370 -494
-490 -325 -409 -515 -845 -594 -1363 -24 -160 -24 -674 0 -834 100 -656 373
-1177 867 -1655 357 -346 769 -581 1231 -702 663 -173 1327 -125 1917 141 945
425 1611 1335 1714 2342 17 163 6 550 -19 716 -81 517 -266 946 -584 1347
-105 133 -364 392 -497 497 -446 354 -923 546 -1490 601 -140 14 -469 11 -616
-5z m546 -765 c502 -50 911 -245 1276 -609 433 -430 642 -961 620 -1571 -7
-189 -24 -308 -67 -473 -87 -339 -259 -641 -520 -911 -294 -305 -611 -490
-1000 -586 -182 -44 -284 -55 -525 -55 -236 1 -346 13 -540 62 -538 134 -1044
538 -1318 1053 -302 567 -313 1333 -28 1915 234 477 671 875 1164 1059 154 58
315 93 552 120 69 7 290 5 386 -4z"/>
<path d="M10636 7014 c-160 -39 -321 -172 -394 -325 -22 -46 -46 -109 -53
-139 -17 -71 -17 -210 0 -280 69 -280 317 -480 596 -480 287 0 540 210 601
500 31 148 -5 335 -90 463 -82 123 -223 226 -361 262 -73 19 -219 18 -299 -1z"/>
</g>
</svg>
