<svg width="21" height="22" viewBox="0 0 21 22" fill="none" xmlns="http://www.w3.org/2000/svg">
<path fill-rule="evenodd" clip-rule="evenodd" d="M5.36622 6.13968C5.75474 6.049 6.15998 6.17721 6.43748 6.47861L14.841 15.6056C15.1188 15.9073 15.229 16.3395 15.1322 16.7479C15.0355 17.1563 14.7457 17.4826 14.3662 17.6104L1.49792 21.9427C1.08277 22.0824 0.628538 21.962 0.324939 21.6316C0.0213397 21.3013 -0.0794086 20.8178 0.0647694 20.3832L4.52955 6.9239C4.66121 6.52701 4.97771 6.23035 5.36622 6.13968ZM6.08448 9.57857L2.99615 18.8885L11.8973 15.8918L6.08448 9.57857Z" fill="#80C342"/>
<path fill-rule="evenodd" clip-rule="evenodd" d="M11.52 1.57793C11.9594 1.10358 12.6718 1.10358 13.1112 1.57793C13.8092 2.33147 14.2038 3.28571 14.0594 4.37664C13.9259 5.38624 13.3557 6.29599 12.6072 7.10405L10.0874 9.82431C9.64805 10.2987 8.93567 10.2987 8.49629 9.82431C8.0569 9.34997 8.0569 8.58091 8.49629 8.10657L11.0161 5.3863C11.6116 4.74337 11.7974 4.29298 11.8318 4.03317C11.8554 3.85468 11.8299 3.63024 11.52 3.29567C11.0806 2.82133 11.0806 2.05227 11.52 1.57793ZM17.3552 9.36413C16.9188 9.36413 16.3481 9.59416 15.631 10.3684L13.1112 13.0886C12.6718 13.563 11.9594 13.563 11.52 13.0886C11.0806 12.6143 11.0806 11.8452 11.52 11.3709L14.0398 8.65062C15.0024 7.6115 16.1116 6.93486 17.3552 6.93486C18.5987 6.93486 19.708 7.6115 20.6705 8.65062C21.1099 9.12496 21.1099 9.89402 20.6705 10.3684C20.2312 10.8427 19.5188 10.8427 19.0794 10.3684C18.3622 9.59416 17.7916 9.36413 17.3552 9.36413Z" fill="#80C342"/>
<path d="M7.98718 2.5463C8.249 2.5463 8.50009 2.43899 8.68522 2.24798C8.87035 2.05697 8.97436 1.79791 8.97436 1.52778C8.97436 1.25765 8.87035 0.998586 8.68522 0.807576C8.50009 0.616567 8.249 0.509259 7.98718 0.509259C7.72536 0.509259 7.47427 0.616567 7.28914 0.807576C7.10401 0.998586 7 1.25765 7 1.52778C7 1.79791 7.10401 2.05697 7.28914 2.24798C7.47427 2.43899 7.72536 2.5463 7.98718 2.5463ZM18.8462 2.03704C19.108 2.03704 19.3591 1.92973 19.5442 1.73872C19.7293 1.54771 19.8333 1.28865 19.8333 1.01852C19.8333 0.748391 19.7293 0.489326 19.5442 0.298317C19.3591 0.107308 19.108 0 18.8462 0C18.5843 0 18.3332 0.107308 18.1481 0.298317C17.963 0.489326 17.859 0.748391 17.859 1.01852C17.859 1.28865 17.963 1.54771 18.1481 1.73872C18.3332 1.92973 18.5843 2.03704 18.8462 2.03704ZM18.8462 13.75C19.108 13.75 19.3591 13.6427 19.5442 13.4517C19.7293 13.2607 19.8333 13.0016 19.8333 12.7315C19.8333 12.4614 19.7293 12.2023 19.5442 12.0113C19.3591 11.8203 19.108 11.713 18.8462 11.713C18.5843 11.713 18.3332 11.8203 18.1481 12.0113C17.963 12.2023 17.859 12.4614 17.859 12.7315C17.859 13.0016 17.963 13.2607 18.1481 13.4517C18.3332 13.6427 18.5843 13.75 18.8462 13.75ZM17.3654 18.3333C17.6272 18.3333 17.8783 18.226 18.0634 18.035C18.2486 17.844 18.3526 17.5849 18.3526 17.3148C18.3526 17.0447 18.2486 16.7856 18.0634 16.5946C17.8783 16.4036 17.6272 16.2963 17.3654 16.2963C17.1036 16.2963 16.8525 16.4036 16.6673 16.5946C16.4822 16.7856 16.3782 17.0447 16.3782 17.3148C16.3782 17.5849 16.4822 17.844 16.6673 18.035C16.8525 18.226 17.1036 18.3333 17.3654 18.3333Z" fill="#80C342"/>
</svg>
