<svg width="48" height="26" viewBox="0 0 48 26" fill="none" xmlns="http://www.w3.org/2000/svg">
<path d="M0 1.44444C0 1.06135 0.173839 0.693954 0.483274 0.423068C0.792709 0.152182 1.21239 0 1.65 0L45.975 0C46.4126 0 46.8323 0.152182 47.1417 0.423068C47.4512 0.693954 47.625 1.06135 47.625 1.44444V9.38889C46.531 9.38889 45.4818 9.76934 44.7082 10.4466C43.9346 11.1238 43.5 12.0423 43.5 13C43.5 13.9577 43.9346 14.8762 44.7082 15.5534C45.4818 16.2307 46.531 16.6111 47.625 16.6111V24.5556C47.625 24.9386 47.4512 25.306 47.1417 25.5769C46.8323 25.8478 46.4126 26 45.975 26H1.65C1.21239 26 0.792709 25.8478 0.483274 25.5769C0.173839 25.306 0 24.9386 0 24.5556V1.44444ZM10.0402 23.1111C10.2103 22.6879 10.5263 22.3213 10.9445 22.062C11.3627 21.8027 11.8625 21.6634 12.375 21.6634C12.8875 21.6634 13.3873 21.8027 13.8055 22.062C14.2237 22.3213 14.5397 22.6879 14.7098 23.1111H44.325V18.824C43.0855 18.2862 42.0423 17.456 41.3129 16.427C40.5836 15.398 40.1971 14.211 40.1971 13C40.1971 11.789 40.5836 10.602 41.3129 9.573C42.0423 8.54396 43.0855 7.71376 44.325 7.176V2.88889H14.7098C14.5397 3.3121 14.2237 3.67867 13.8055 3.93798C13.3873 4.19729 12.8875 4.33655 12.375 4.33655C11.8625 4.33655 11.3627 4.19729 10.9445 3.93798C10.5263 3.67867 10.2103 3.3121 10.0402 2.88889H3.3V23.1111H10.0402ZM12.375 11.5556C11.7186 11.5556 11.0891 11.3273 10.6249 10.921C10.1608 10.5146 9.9 9.96352 9.9 9.38889C9.9 8.81425 10.1608 8.26315 10.6249 7.85682C11.0891 7.4505 11.7186 7.22222 12.375 7.22222C13.0314 7.22222 13.6609 7.4505 14.1251 7.85682C14.5892 8.26315 14.85 8.81425 14.85 9.38889C14.85 9.96352 14.5892 10.5146 14.1251 10.921C13.6609 11.3273 13.0314 11.5556 12.375 11.5556ZM12.375 18.7778C11.7186 18.7778 11.0891 18.5495 10.6249 18.1432C10.1608 17.7368 9.9 17.1857 9.9 16.6111C9.9 16.0365 10.1608 15.4854 10.6249 15.079C11.0891 14.6727 11.7186 14.4444 12.375 14.4444C13.0314 14.4444 13.6609 14.6727 14.1251 15.079C14.5892 15.4854 14.85 16.0365 14.85 16.6111C14.85 17.1857 14.5892 17.7368 14.1251 18.1432C13.6609 18.5495 13.0314 18.7778 12.375 18.7778Z" fill="#959595"/>
</svg>
