<svg width="47" height="32" viewBox="0 0 47 32" fill="none" xmlns="http://www.w3.org/2000/svg">
<path d="M0 0V2.88523H27.665V24.5245H18.7016C18.0522 22.0446 15.8011 20.1966 13.1045 20.1966C10.4079 20.1966 8.15682 22.0446 7.50742 24.5245H5.82422V17.3114H2.91211V27.4097H7.50742C8.15682 29.8895 10.4079 31.7375 13.1045 31.7375C15.8011 31.7375 18.0522 29.8895 18.7016 27.4097H30.8043C31.4537 29.8895 33.7048 31.7375 36.4014 31.7375C39.098 31.7375 41.349 29.8895 41.9984 27.4097H46.5938V15.6437L46.502 15.4172L43.5899 6.76154L43.2739 5.77046H30.5771V0H0ZM1.45605 5.77046V8.65569H14.5605V5.77046H1.45605ZM30.5771 8.65569H41.1787L43.6816 16.0491V24.5245H41.9984C41.349 22.0446 39.098 20.1966 36.4014 20.1966C33.7048 20.1966 31.4537 22.0446 30.8043 24.5245H30.5771V8.65569ZM2.91211 11.5409V14.4262H11.6484V11.5409H2.91211ZM13.1045 23.0818C14.7309 23.0818 16.0166 24.3557 16.0166 25.9671C16.0166 27.5785 14.7309 28.8523 13.1045 28.8523C11.4781 28.8523 10.1924 27.5785 10.1924 25.9671C10.1924 24.3557 11.4781 23.0818 13.1045 23.0818ZM36.4014 23.0818C38.0278 23.0818 39.3135 24.3557 39.3135 25.9671C39.3135 27.5785 38.0278 28.8523 36.4014 28.8523C34.775 28.8523 33.4893 27.5785 33.4893 25.9671C33.4893 24.3557 34.775 23.0818 36.4014 23.0818Z" fill="#959595"/>
</svg>
