<svg width="36" height="31" viewBox="0 0 36 31" fill="none" xmlns="http://www.w3.org/2000/svg">
<path d="M18.2229 30.4545L3.62058 15.8523C2.45581 14.6875 1.6793 13.3333 1.29104 11.7898C0.91225 10.2462 0.916985 8.71212 1.30524 7.1875C1.6935 5.65341 2.46528 4.31818 3.62058 3.18182C4.8043 2.01704 6.15373 1.24526 7.66888 0.866477C9.1935 0.478219 10.7134 0.478219 12.2285 0.866477C13.7532 1.25473 15.1073 2.02651 16.291 3.18182L18.2229 5.05682L20.1547 3.18182C21.3479 2.02651 22.702 1.25473 24.2172 0.866477C25.7323 0.478219 27.2475 0.478219 28.7626 0.866477C30.2873 1.24526 31.6414 2.01704 32.8251 3.18182C33.9804 4.31818 34.7522 5.65341 35.1405 7.1875C35.5287 8.71212 35.5287 10.2462 35.1405 11.7898C34.7617 13.3333 33.9899 14.6875 32.8251 15.8523L18.2229 30.4545ZM18.2229 26.0369L30.6092 13.6364C31.3668 12.8883 31.8687 12.0123 32.1149 11.0085C32.3706 10.0047 32.3753 9.00568 32.1291 8.01136C31.8829 7.00757 31.3857 6.1411 30.6376 5.41193C29.8611 4.64489 28.9757 4.13826 27.9814 3.89205C26.9965 3.63636 26.0069 3.63636 25.0126 3.89205C24.0183 4.14773 23.1234 4.65909 22.328 5.42614L18.2229 9.41761L14.1177 5.42614C13.3318 4.65909 12.4369 4.14773 11.4331 3.89205C10.4388 3.63636 9.44445 3.63636 8.45013 3.89205C7.46528 4.13826 6.5846 4.64489 5.80808 5.41193C5.05998 6.1411 4.56282 7.00757 4.31661 8.01136C4.07039 9.00568 4.07513 10.0047 4.33081 11.0085C4.58649 12.0123 5.08839 12.8883 5.83649 13.6364L18.2229 26.0369Z" fill="#959595"/>
</svg>
