<svg width="120" height="40" viewBox="0 0 214 51" fill="none" xmlns="http://www.w3.org/2000/svg">
<path d="M39.3625 24.3417C34.9368 21.3337 29.2608 22.5599 26.2864 27.0863C23.8005 30.8702 20.0453 31.3396 18.594 31.3396C13.8569 31.3396 10.6142 28.0059 9.65622 24.5573C9.64664 24.5237 9.64185 24.495 9.63227 24.4615C9.61312 24.4232 9.60354 24.3848 9.59396 24.3417C9.21556 22.9048 9.12456 22.2199 9.12456 20.6871C9.12456 12.4391 17.5833 3.25706 29.7686 3.25706C42.246 3.25706 49.3876 12.7552 51.2221 18.0336C51.1933 17.9426 51.1646 17.8468 51.131 17.751C47.5866 7.42897 37.7963 0 26.272 0C11.7637 0 0 11.7637 0 26.272C0 39.2428 9.35446 50.3455 22.33 50.3455C32.6855 50.3455 39.6355 44.5451 42.8255 36.5461C44.5786 32.1826 43.3381 27.0432 39.3625 24.3417Z" fill="#959595"/>
<path d="M51.3899 18.5537C49.8572 13.4046 42.6629 3.26465 29.7688 3.26465C17.5835 3.26465 9.12476 12.4467 9.12476 20.6947C9.12476 22.2227 9.21576 22.9124 9.59416 24.3493C9.43609 23.7171 9.34988 23.0896 9.34988 22.4717C9.34988 13.8836 17.9476 7.9347 26.7895 7.9347C38.7592 7.9347 48.4538 17.634 48.4538 29.5989C48.4538 38.9773 43.0557 47.096 35.21 50.9949L35.2148 50.9997C45.3212 47.3403 52.5442 37.6554 52.5442 26.2844C52.5442 23.5973 52.185 21.2216 51.3899 18.5537Z" fill="#959595"/>
<path d="M84.7452 24.7123V26.9251H65.4375V24.7123H72.9718V21.2253H75.5152V24.7123H84.7452ZM80.578 23.5579V18.543H66.9942V16.2822H83.1933V23.5579H80.578ZM80.487 32.649C80.487 33.3387 80.3433 33.9901 80.0655 34.6032C79.7781 35.2163 79.4045 35.7384 78.9351 36.179C78.4466 36.6532 77.8814 37.0172 77.23 37.2855C76.5786 37.5489 75.884 37.683 75.1416 37.683C74.404 37.683 73.7095 37.5489 73.0581 37.2855C72.4066 37.0172 71.8367 36.6484 71.3481 36.179C70.8787 35.7384 70.5003 35.2163 70.2177 34.6032C69.9351 33.9901 69.7962 33.3387 69.7962 32.649C69.7962 31.9592 69.9399 31.303 70.2177 30.6947C70.5003 30.0816 70.8787 29.55 71.3481 29.0949C71.8367 28.6255 72.4066 28.2615 73.0581 28.0029C73.7095 27.7442 74.404 27.6149 75.1416 27.6149C75.8792 27.6149 76.5738 27.7442 77.23 28.0029C77.8814 28.2615 78.4466 28.6255 78.9351 29.0949C79.4045 29.5547 79.7829 30.0864 80.0655 30.6947C80.3433 31.303 80.487 31.9592 80.487 32.649ZM77.9437 32.6202C77.9437 31.8538 77.6706 31.1929 77.1198 30.642C76.569 30.0912 75.9128 29.8182 75.1416 29.8182C74.3753 29.8182 73.7143 30.0912 73.1634 30.642C72.6126 31.1929 72.3396 31.8491 72.3396 32.6202C72.3396 33.3914 72.6174 34.0428 73.1634 34.5744C73.7095 35.1061 74.3705 35.3743 75.1416 35.3743C75.9128 35.3743 76.569 35.1061 77.1198 34.5744C77.6706 34.0428 77.9437 33.3914 77.9437 32.6202Z" fill="#959595"/>
<path d="M87.4085 18.6878V16.4462H99.4165V18.683H94.2819L99.6273 25.2019L97.8167 26.7107L93.482 21.3174L89.2191 27.0652L87.3367 25.5564L92.6821 18.683H87.4085V18.6878ZM104.053 32.3627C104.053 33.0668 103.909 33.7326 103.617 34.3552C103.325 34.9731 102.937 35.5192 102.453 35.9933C101.965 36.4627 101.39 36.8363 100.724 37.1094C100.054 37.3824 99.3447 37.5213 98.5927 37.5213C97.855 37.5213 97.1462 37.3824 96.4708 37.1094C95.7954 36.8363 95.2159 36.4627 94.7321 35.9933C94.2435 35.5192 93.8556 34.9779 93.5682 34.3552C93.276 33.7373 93.1323 33.0716 93.1323 32.3627C93.1323 31.6586 93.276 30.9928 93.5682 30.3749C93.8604 29.757 94.2435 29.211 94.7321 28.7368C95.2207 28.2674 95.8002 27.8938 96.4708 27.6208C97.1462 27.343 97.855 27.2089 98.5927 27.2089C99.3447 27.2089 100.054 27.3478 100.724 27.6208C101.39 27.8938 101.969 28.2674 102.453 28.7368C102.942 29.211 103.325 29.7522 103.617 30.3749C103.905 30.9928 104.053 31.6586 104.053 32.3627ZM101.486 32.3435C101.486 31.558 101.198 30.8826 100.628 30.3174C100.054 29.7522 99.3686 29.4744 98.5687 29.4744C97.7832 29.4744 97.1078 29.757 96.5426 30.3174C95.9775 30.8826 95.6949 31.558 95.6949 32.3435C95.6949 33.1434 95.9775 33.8236 96.5426 34.3792C97.1078 34.9348 97.7832 35.2174 98.5687 35.2174C99.3686 35.2174 100.054 34.9348 100.628 34.3792C101.198 33.8188 101.486 33.1434 101.486 32.3435ZM103.229 26.9742V22.4286H99.3207V20.1679H103.229V15.8379H105.84V26.9742H103.229V26.9742Z" fill="#959595"/>
<path d="M119.045 34.0822H116.435V19.4877H108.383V17.1311H119.05V34.0822H119.045ZM124.06 15.8379H126.67V36.8363H124.06V26.4808H120.86V24.1482H124.06V15.8379Z" fill="#959595"/>
<path d="M139.857 33.9433H130.536V24.335H136.633V19.4398H130.536V17.1311H139.129V26.6197H133.031V31.6586H139.857V33.9433ZM143.981 15.8618V24.5697H146.591V15.8379H149.087V36.8363H146.591V26.9694H143.981V36.7166H141.557V15.8618H143.981Z" fill="#959595"/>
<path d="M151.912 30.4851V28.1764H165.97V30.4851H160.083V36.161H157.516V30.4851H151.912ZM164.366 21.533C164.366 22.2562 164.222 22.9364 163.934 23.583C163.642 24.2248 163.235 24.7804 162.723 25.2546C162.205 25.7432 161.607 26.1264 160.931 26.409C160.256 26.6916 159.533 26.8305 158.766 26.8305C158 26.8305 157.277 26.6868 156.601 26.409C155.926 26.1264 155.332 25.7432 154.81 25.2546C154.293 24.7804 153.885 24.2248 153.589 23.583C153.287 22.9412 153.138 22.2562 153.138 21.533C153.138 20.8145 153.287 20.1295 153.589 19.4829C153.885 18.8411 154.293 18.2759 154.81 17.7873C155.327 17.3036 155.921 16.9156 156.601 16.633C157.281 16.3504 158 16.2115 158.766 16.2115C159.533 16.2115 160.261 16.3504 160.931 16.633C161.607 16.9156 162.205 17.3036 162.723 17.7873C163.24 18.2759 163.642 18.8411 163.934 19.4829C164.222 20.1295 164.366 20.8145 164.366 21.533ZM161.87 21.533C161.87 20.6852 161.564 19.9619 160.955 19.368C160.342 18.7692 159.614 18.4723 158.762 18.4723C157.914 18.4723 157.19 18.774 156.582 19.368C155.979 19.9667 155.677 20.6852 155.677 21.533C155.677 22.3664 155.979 23.0848 156.582 23.6884C157.186 24.2919 157.914 24.5936 158.762 24.5936C159.609 24.5936 160.342 24.2919 160.955 23.6884C161.564 23.0848 161.87 22.3664 161.87 21.533ZM167.546 15.8379H170.137V36.8363H167.546V15.8379Z" fill="#959595"/>
<path d="M182.117 27.9338V30.7598H179.526V27.9338H173.807V25.7689H187.812V27.9338H182.117ZM177.734 29.7731V34.1558H192.731V36.4166H175.124V29.7731H177.734ZM185.666 20.2845C185.666 20.9264 185.532 21.5347 185.254 22.1095C184.976 22.6842 184.617 23.1872 184.162 23.6278C183.707 24.0493 183.171 24.3894 182.562 24.6385C181.954 24.8875 181.298 25.0169 180.608 25.0169C179.914 25.0169 179.267 24.8923 178.654 24.6385C178.041 24.3846 177.5 24.0493 177.03 23.6278C176.59 23.1872 176.235 22.6842 175.957 22.1095C175.684 21.5347 175.55 20.9264 175.55 20.2845C175.55 19.6379 175.684 19.0344 175.957 18.4692C176.235 17.904 176.59 17.4011 177.03 16.9652C177.504 16.5246 178.041 16.1845 178.654 15.9402C179.267 15.6959 179.918 15.5762 180.608 15.5762C181.298 15.5762 181.949 15.6959 182.562 15.9402C183.175 16.1845 183.707 16.5246 184.162 16.9652C184.617 17.4059 184.976 17.9088 185.254 18.4692C185.532 19.0344 185.666 19.6379 185.666 20.2845ZM183.199 20.3085C183.199 19.6044 182.946 19.0009 182.447 18.5075C181.945 18.0142 181.331 17.7699 180.613 17.7699C179.89 17.7699 179.277 18.0142 178.774 18.5075C178.271 19.0057 178.022 19.6044 178.022 20.3085C178.022 21.0126 178.271 21.6113 178.774 22.1095C179.272 22.6028 179.885 22.8519 180.613 22.8519C181.331 22.8519 181.945 22.6028 182.447 22.1095C182.946 21.6113 183.199 21.0126 183.199 20.3085ZM189.579 23.9344H186.591V21.7933H189.579V15.8348H192.171V30.9993H189.579V23.9344Z" fill="#959595"/>
<path d="M209.352 34.7424H195.582V32.4576H201.114V29.8424C200.86 29.7801 200.625 29.7035 200.41 29.6077C199.782 29.3586 199.232 29.0186 198.762 28.5971C198.293 28.1564 197.924 27.6535 197.656 27.0787C197.388 26.5039 197.258 25.8956 197.258 25.2538C197.258 24.612 197.392 24.0037 197.656 23.4432C197.924 22.878 198.293 22.3751 198.762 21.9345C199.232 21.4986 199.778 21.1537 200.4 20.9094C201.018 20.6652 201.684 20.5454 202.393 20.5454C203.102 20.5454 203.758 20.6652 204.371 20.9094C204.979 21.1537 205.516 21.4986 205.966 21.9345C206.44 22.3751 206.809 22.878 207.087 23.4432C207.36 24.0084 207.499 24.612 207.499 25.2538C207.499 25.8956 207.36 26.5039 207.087 27.0787C206.809 27.6535 206.44 28.1564 205.966 28.5971C205.511 29.0186 204.979 29.3586 204.371 29.6077C204.117 29.7179 203.859 29.8041 203.59 29.8664V32.4576H209.357V34.7424H209.352ZM200.922 17.9302V15.6934H203.748V17.9302H208.859V20.167H195.816V17.9302H200.922ZM204.951 25.2298C204.951 24.5353 204.697 23.9462 204.199 23.448C203.696 22.9547 203.083 22.7104 202.359 22.7104C201.636 22.7104 201.028 22.9547 200.525 23.448C200.022 23.9462 199.768 24.5353 199.768 25.2298C199.768 25.9196 200.022 26.5183 200.525 27.0212C201.023 27.5194 201.636 27.7732 202.359 27.7732C203.083 27.7732 203.696 27.5242 204.199 27.0212C204.697 26.5183 204.951 25.9196 204.951 25.2298ZM211.211 15.8371H213.802V36.8355H211.211V15.8371Z" fill="#959595"/>
</svg>
