<svg width="120" height="40" viewBox="0 0 235 51" fill="none" xmlns="http://www.w3.org/2000/svg">
<path d="M116.495 32.1324C116.992 32.5859 117.377 33.0966 117.656 33.6573C117.952 34.2894 118.099 34.9643 118.099 35.6929C118.099 37.2106 117.52 38.4748 116.367 39.4962C115.292 40.4318 114.031 40.9032 112.585 40.9032C111.135 40.9032 109.878 40.4318 108.799 39.4962C107.664 38.4748 107.089 37.2106 107.089 35.6929C107.089 34.9643 107.231 34.3001 107.503 33.6823C107.764 33.1038 108.139 32.5859 108.624 32.1324H106.332V30.3218H111.424V28.3291H113.677V30.3218H118.831V32.1324H116.495V32.1324ZM107.539 43.0566H109.588V47.767H125.03V49.6705H108.806C108.335 49.6705 108.003 49.5669 107.817 49.3526C107.635 49.1419 107.539 48.7348 107.539 48.1349V43.0566V43.0566ZM110.099 33.1466C109.374 33.8109 109.014 34.6322 109.014 35.6214C109.014 36.5928 109.374 37.4213 110.099 38.1034C110.788 38.7319 111.603 39.0498 112.542 39.0498C113.463 39.0498 114.274 38.7319 114.963 38.1034C115.688 37.4356 116.049 36.6107 116.049 35.6214C116.049 34.6322 115.684 33.8109 114.963 33.1466C114.274 32.5288 113.467 32.2217 112.542 32.2217C111.606 32.2181 110.788 32.5252 110.099 33.1466ZM124.884 36.7571V42.9245H122.845V29.4862H124.884V34.8572H127.673V36.7571H124.884Z" fill="#959595"/>
<path d="M147.693 36.6219V38.5218H138.658V42.4536H146.679V49.7424H144.636V44.3535H128.759V42.4536H136.701V38.5218H128.048V36.6219H144.636V31.3973H128.78V29.501H146.679V36.6219H147.693Z" fill="#959595"/>
<path d="M161.893 29.501V31.3544H157.357C157.411 32.7972 157.75 33.9364 158.4 34.7792C159.161 35.7827 160.361 36.3933 161.986 36.604V38.6432C160.778 38.5468 159.711 38.2468 158.811 37.7468C157.722 37.1504 156.872 36.2719 156.257 35.1256C155.597 36.2576 154.665 37.1504 153.45 37.7968C152.468 38.2968 151.472 38.5825 150.458 38.6432V36.629C152.115 36.3862 153.322 35.7684 154.072 34.7792C154.715 33.9542 155.061 32.815 155.107 31.3544H150.597V29.501H161.893ZM165.725 40.3859C167.057 41.5323 167.728 43.0143 167.728 44.8285C167.728 46.6391 167.057 48.1247 165.725 49.2924C164.482 50.3745 163.003 50.9138 161.289 50.9138C159.579 50.9138 158.136 50.3745 156.939 49.2924C155.647 48.1247 155.007 46.6355 155.007 44.8285C155.007 43.0143 155.647 41.5358 156.939 40.3859C158.136 39.3181 159.579 38.7825 161.289 38.7825C163.003 38.7825 164.482 39.3181 165.725 40.3859ZM158.407 41.7287C157.507 42.5465 157.047 43.5786 157.047 44.8392C157.047 46.057 157.504 47.0712 158.407 47.8925C159.25 48.6711 160.229 49.0639 161.343 49.0639C162.471 49.0639 163.478 48.6711 164.35 47.8925C165.264 47.0712 165.725 46.0534 165.725 44.8392C165.725 43.5786 165.264 42.5465 164.35 41.7287C163.493 41.0037 162.489 40.6431 161.343 40.6431C160.207 40.6431 159.236 41.0037 158.407 41.7287ZM166.464 32.9507V29.501H168.507V38.7468H166.464V34.8113H162.964V32.9507H166.464Z" fill="#959595"/>
<path d="M189.722 38.4432C189.722 39.0396 189.619 39.4503 189.422 39.661C189.254 39.8574 188.926 39.9502 188.44 39.9502H182.316V46.7319H191.015V48.6282H171.688V46.7319H180.359V39.9502H174.18C173.691 39.9502 173.359 39.8574 173.198 39.661C173.009 39.4503 172.92 39.0432 172.92 38.4432V29.501H174.963V32.4365H187.687V29.501H189.729V38.4432H189.722ZM174.959 38.1361H187.683V34.2899H174.959V38.1361Z" fill="#959595"/>
<path d="M203.247 30.2938C204.475 31.3758 205.09 32.7329 205.09 34.3685C205.09 35.9862 204.475 37.3397 203.247 38.4218C202.097 39.4395 200.758 39.9502 199.229 39.9502C197.694 39.9502 196.354 39.4395 195.219 38.4218C193.997 37.3397 193.39 35.9862 193.39 34.3685C193.39 32.7329 193.997 31.3794 195.219 30.2938C196.354 29.2724 197.694 28.7617 199.229 28.7617C200.758 28.7617 202.097 29.2724 203.247 30.2938ZM194.747 43.0536H196.79V47.764H212.232V49.6638H196.008C195.533 49.6638 195.205 49.5567 195.019 49.346C194.837 49.1353 194.747 48.7282 194.747 48.1318V43.0536ZM196.637 31.6615C195.862 32.39 195.48 33.2864 195.48 34.3542C195.48 35.4077 195.862 36.2862 196.637 36.9826C197.369 37.6647 198.24 38.0039 199.233 38.0039C200.229 38.0039 201.101 37.6682 201.84 36.9826C202.615 36.2862 203.011 35.4077 203.011 34.3542C203.011 33.2864 202.615 32.39 201.84 31.6615C201.086 30.9937 200.215 30.6616 199.233 30.6616C198.24 30.6616 197.369 30.9937 196.637 31.6615ZM210.043 29.501H212.093V42.9607H210.043V29.501Z" fill="#959595"/>
<path d="M234.587 38.3896V40.2467H229.013C229.752 40.768 230.316 41.393 230.723 42.118C231.184 42.8965 231.412 43.7643 231.412 44.7249C231.412 46.5855 230.737 48.1211 229.409 49.321C228.152 50.4388 226.666 50.9995 224.924 50.9995C223.145 50.9995 221.617 50.4388 220.363 49.321C219.031 48.1354 218.36 46.6033 218.36 44.7249C218.36 43.7821 218.578 42.9143 219.031 42.118C219.428 41.3894 219.999 40.7645 220.735 40.2467H215.231V38.3896H234.587V38.3896ZM226.406 31.3544C226.47 32.3294 227.241 33.0293 228.748 33.4686C229.934 33.8257 231.637 34.0292 233.855 34.0757V36.0184C231.937 36.0184 230.355 35.8898 229.098 35.6291C227.116 35.2077 225.724 34.4721 224.906 33.4186C224.077 34.4721 222.659 35.2006 220.652 35.6077C219.438 35.847 217.878 35.9827 215.96 36.0184V34.0935C218.185 34.0507 219.874 33.8542 221.017 33.515C222.524 33.0757 223.32 32.3543 223.395 31.3508H215.96V29.501H233.859V31.3544H226.406ZM221.767 41.5894C220.838 42.4644 220.363 43.5107 220.363 44.7249C220.363 45.9248 220.838 46.9569 221.767 47.8354C222.674 48.7103 223.727 49.146 224.906 49.146C226.049 49.146 227.066 48.7103 227.973 47.8354C228.93 46.9569 229.409 45.9248 229.409 44.7249C229.409 43.5107 228.927 42.4644 227.973 41.5894C227.066 40.7323 226.049 40.3002 224.906 40.3002C223.727 40.3002 222.674 40.7359 221.767 41.5894Z" fill="#959595"/>
<path d="M22.0553 16.2739C23.9266 10.0243 29.7191 5.46747 36.5757 5.46747C43.4359 5.46747 49.2284 10.0243 51.0997 16.2739H56.7386C54.7387 6.97451 46.4714 0 36.5757 0C26.68 0 18.4163 6.97094 16.4128 16.2739H22.0553Z" fill="#959595"/>
<path d="M39.3043 13.7021H36.1653H33.4297C32.2441 13.7021 31.7727 14.3521 31.7727 15.4449V41.8359C31.7727 43.0215 32.3977 43.6143 33.6154 43.6143H35.6903H36.6474H39.1222C40.3364 43.6143 40.9649 43.018 40.9649 41.8359V15.4449C40.9613 14.3521 40.49 13.7021 39.3043 13.7021Z" fill="#959595"/>
<path d="M16.7238 34.8999C16.7238 34.8999 26.6767 23.6506 27.3481 22.8686C28.2837 21.7758 27.5945 20.6294 26.3482 20.6294H21.1664C21.1664 20.6294 18.9987 20.5044 17.4416 22.4115L9.05651 32.1822V22.3293C9.05651 21.2365 8.60297 20.5866 7.54947 20.5866H4.66753L1.65346 20.583C0.467825 20.583 0 21.2365 0 22.3257V48.7168C0 49.9024 0.624956 50.4988 1.84273 50.4988H4.18899H5.1425H7.21378C8.43155 50.4988 9.05651 49.9024 9.05651 48.7168V38.0032L17.5523 48.7132C17.5523 48.7132 19.0737 50.4631 21.3164 50.4631H27.1624C28.5659 50.4631 29.2194 49.3524 28.3337 48.3203C27.3767 47.2169 16.7238 34.8999 16.7238 34.8999Z" fill="#959595"/>
<path d="M98.0177 43.3644C97.4427 41.8074 91.2539 26.0764 90.179 23.2694C89.1433 20.566 85.7793 20.591 85.7793 20.591H83.533H80.9939C80.9939 20.591 77.6299 20.566 76.5906 23.2694C75.9407 24.9693 71.5553 36.2364 68.6483 43.7073L60.4525 43.7109C58.5205 43.7109 57.1491 43.493 56.3349 43.0645C55.5171 42.6359 54.8814 41.886 54.4208 40.8218C53.9565 39.754 53.728 37.4113 53.728 35.0186C53.728 31.8474 54.2458 30.5189 55.2778 29.3511C56.3099 28.1834 58.0241 27.5977 60.4132 27.5977C60.4132 27.5977 61.881 27.6191 63.3844 27.6191C71.0875 27.6191 71.5838 20.5518 71.5838 20.5518H59.0133C56.3028 20.5518 54.1136 20.9196 52.4495 21.6553C50.7817 22.3873 49.3997 23.4408 48.314 24.8157C47.2248 26.1871 46.4356 27.787 45.9428 29.6047C45.4535 31.426 45.2107 33.358 45.2107 35.3936C45.2107 38.5862 45.575 41.0682 46.2999 42.8252C47.0284 44.5858 48.0426 46.0607 49.3354 47.2499C50.6282 48.4391 52.0174 49.2319 53.4994 49.6283C55.5278 50.1711 57.367 50.4425 59.0133 50.4425H68.6912H70.7125C70.8268 50.4425 70.9375 50.4282 71.0482 50.4032H71.966C75.6907 50.4032 76.7906 47.1285 76.7906 47.1285L83.6009 26.9013L89.554 43.7966H79.7333C79.7333 43.7966 80.4404 50.4068 87.247 50.4068C91.0718 50.4068 93.5894 50.4068 93.5894 50.4068C96.8321 50.3961 99.9533 48.6069 98.0177 43.3644Z" fill="#959595"/>
</svg>
