<svg width="76" height="83" viewBox="0 0 76 83" fill="none" xmlns="http://www.w3.org/2000/svg">
<path d="M0 81.8571V74.7466H0.952547V80.9682H8.39746V81.8571H0Z" fill="black" fill-opacity="0.7"/>
<path d="M11.5058 79.5716V78.6827H21.9086V79.5716H11.5058ZM17.4467 77.3241C17.4467 77.5358 17.3756 77.7135 17.2336 77.8574C17.0999 78.0013 16.9244 78.0733 16.7072 78.0733C16.4899 78.0733 16.3103 78.0013 16.1682 77.8574C16.0345 77.7135 15.9677 77.5358 15.9677 77.3241C15.9677 77.1125 16.0345 76.9348 16.1682 76.7909C16.3103 76.647 16.4899 76.575 16.7072 76.575C16.9244 76.575 17.0999 76.647 17.2336 76.7909C17.3756 76.9348 17.4467 77.1125 17.4467 77.3241Z" fill="black" fill-opacity="0.7"/>
<path d="M25.2676 78.4923C25.2676 77.9336 25.3637 77.413 25.5558 76.9305C25.748 76.448 26.0154 76.029 26.358 75.6735C26.7006 75.3264 27.1142 75.0556 27.5988 74.8609C28.0834 74.6577 28.6224 74.5561 29.2156 74.5561C29.8005 74.5561 30.3353 74.6577 30.8199 74.8609C31.3129 75.0556 31.7307 75.3264 32.0733 75.6735C32.4158 76.029 32.6832 76.448 32.8754 76.9305C33.0676 77.413 33.1637 77.9336 33.1637 78.4923C33.1637 79.051 33.0676 79.5716 32.8754 80.054C32.6832 80.5365 32.4158 80.9513 32.0733 81.2984C31.7307 81.6539 31.3129 81.9332 30.8199 82.1364C30.3353 82.3311 29.8005 82.4284 29.2156 82.4284C28.6224 82.4284 28.0834 82.3311 27.5988 82.1364C27.1142 81.9332 26.7006 81.6539 26.358 81.2984C26.0154 80.9513 25.748 80.5365 25.5558 80.054C25.3637 79.5716 25.2676 79.051 25.2676 78.4923ZM26.2201 78.4923C26.2201 78.9325 26.2953 79.3388 26.4457 79.7112C26.5961 80.0837 26.805 80.4053 27.0724 80.6762C27.3314 80.9471 27.6448 81.1587 28.0124 81.3111C28.3801 81.4634 28.7811 81.5396 29.2156 81.5396C29.6501 81.5396 30.0512 81.4634 30.4188 81.3111C30.7865 81.1587 31.104 80.9471 31.3714 80.6762C31.6304 80.4053 31.8351 80.0837 31.9855 79.7112C32.1359 79.3388 32.2111 78.9325 32.2111 78.4923C32.2111 78.0521 32.1359 77.6458 31.9855 77.2733C31.8351 76.9009 31.6304 76.5792 31.3714 76.3084C31.104 76.0375 30.7865 75.8259 30.4188 75.6735C30.0512 75.5211 29.6501 75.4449 29.2156 75.4449C28.7811 75.4449 28.3801 75.5211 28.0124 75.6735C27.6448 75.8259 27.3314 76.0375 27.0724 76.3084C26.805 76.5792 26.5961 76.9009 26.4457 77.2733C26.2953 77.6458 26.2201 78.0521 26.2201 78.4923Z" fill="black" fill-opacity="0.7"/>
<path d="M42.1377 81.984V75.6354H41.3857V74.7466H50.2845V75.6354H43.0902V81.0952H50.2845V81.984H42.1377Z" fill="black" fill-opacity="0.7"/>
<path d="M58.3937 82.9998H57.4662V73.8578H58.3937V82.9998ZM60.6998 78.086C60.6998 78.3061 60.633 78.4881 60.4993 78.632C60.3656 78.7674 60.1859 78.8351 59.9603 78.8351C59.7347 78.8351 59.5551 78.7674 59.4214 78.632C59.2877 78.4881 59.2209 78.3061 59.2209 78.086C59.2209 77.8659 59.2877 77.6881 59.4214 77.5527C59.5551 77.4088 59.7347 77.3368 59.9603 77.3368C60.1859 77.3368 60.3656 77.4088 60.4993 77.5527C60.633 77.6881 60.6998 77.8659 60.6998 78.086Z" fill="black" fill-opacity="0.7"/>
<path d="M66.9039 81.984V74.7466H75.3014V81.984H66.9039ZM67.8565 81.0952H74.3488V75.6354H67.8565V81.0952Z" fill="black" fill-opacity="0.7"/>
<path d="M64.2337 31.6125C64.2337 22.6567 57.0174 15.397 48.1151 15.397C45.345 15.397 42.7378 16.1007 40.4609 17.3394C35.4207 20.0805 31.9961 25.4439 31.9961 31.6125C31.9961 31.742 32.0064 31.8684 32.0094 31.997H64.2243C64.2277 31.8688 64.2337 31.7415 64.2337 31.6125Z" fill="#FBAC33"/>
<path d="M54.3801 10.0709C52.0108 13.0086 47.6348 13.4724 47.6348 13.4724C47.6348 13.4724 49.8213 10.2052 49.3762 6.86071C48.9035 3.31077 55.4686 0 55.4686 0C55.4686 0 56.7499 7.13312 54.3801 10.0709Z" fill="#FBAC33"/>
<path d="M29.966 31.2693C30.0998 23.8529 34.6178 18.2394 40.8983 15.0565C38.2519 13.3604 34.7371 11.8535 31.3171 11.7917C20.3286 11.594 11.2631 20.1619 11.0692 30.9288C11.0628 31.2869 11.0679 31.6433 11.0803 31.9971H29.9668C29.9625 31.7561 29.9613 31.5138 29.966 31.2693Z" fill="#80C342"/>
<path d="M4.81624 33.9217C4.81495 34.0442 4.81152 34.1658 4.81152 34.2883C4.81152 52.4216 19.5142 67.1217 37.6508 67.1217C55.787 67.1217 70.4897 52.4221 70.4897 34.2883C70.4897 34.1658 70.4867 34.0442 70.4854 33.9217H4.81624Z" fill="#A38056"/>
</svg>
