<svg width="176" height="45" viewBox="0 0 176 45" fill="none" xmlns="http://www.w3.org/2000/svg">
<path d="M70.049 31.3313C70.049 31.8581 70.1575 32.3276 70.3745 32.7399C70.6132 33.1521 70.9387 33.5072 71.351 33.8049C71.7416 34.0798 72.1973 34.2973 72.7181 34.4577C73.2606 34.618 73.8465 34.6982 74.4758 34.6982C75.0834 34.6982 75.6585 34.618 76.201 34.4577C76.7435 34.2973 77.2209 34.0798 77.6332 33.8049C78.0238 33.5072 78.3276 33.1521 78.5446 32.7399C78.7833 32.3276 78.9026 31.8581 78.9026 31.3313C78.9026 30.8274 78.7833 30.3693 78.5446 29.9571C78.3276 29.5219 78.0238 29.1554 77.6332 28.8577C77.2209 28.5828 76.7435 28.3652 76.201 28.2049C75.6585 28.0446 75.0834 27.9644 74.4758 27.9644C73.8465 27.9644 73.2606 28.0446 72.7181 28.2049C72.1973 28.3652 71.7416 28.5828 71.351 28.8577C70.9387 29.1554 70.6132 29.5219 70.3745 29.9571C70.1575 30.3693 70.049 30.8274 70.049 31.3313ZM67.6402 31.3313C67.6402 30.5526 67.8139 29.8196 68.1611 29.1325C68.5083 28.4454 68.9965 27.8384 69.6258 27.3117C70.2334 26.8078 70.9495 26.407 71.7741 26.1092C72.5987 25.8115 73.4993 25.6626 74.4758 25.6626C75.4523 25.6626 76.3529 25.8115 77.1775 26.1092C78.0021 26.407 78.729 26.8078 79.3583 27.3117C79.9659 27.8384 80.4433 28.4454 80.7905 29.1325C81.1377 29.8196 81.3113 30.5526 81.3113 31.3313C81.3113 32.11 81.1377 32.8429 80.7905 33.5301C80.4433 34.2172 79.9659 34.8241 79.3583 35.3509C78.729 35.8548 78.0021 36.2556 77.1775 36.5534C76.3529 36.8511 75.4523 37 74.4758 37C73.4993 37 72.5987 36.8511 71.7741 36.5534C70.9495 36.2556 70.2334 35.8548 69.6258 35.3509C68.9965 34.8241 68.5083 34.2172 68.1611 33.5301C67.8139 32.8429 67.6402 32.11 67.6402 31.3313ZM61 24.0479V21.7117H87.9516V24.0479H61ZM63.604 17.7607V10.0307H66.0127V15.5276H85.3476V17.7607H63.604ZM72.7506 19.7534C72.7506 19.2266 72.9134 18.8029 73.2389 18.4822C73.5644 18.1616 73.9767 18.0012 74.4758 18.0012C74.9749 18.0012 75.3872 18.1616 75.7127 18.4822C76.0382 18.8029 76.201 19.2266 76.201 19.7534C76.201 20.2802 76.0382 20.7039 75.7127 21.0245C75.3872 21.3452 74.9749 21.5055 74.4758 21.5055C73.9767 21.5055 73.5644 21.3452 73.2389 21.0245C72.9134 20.7039 72.7506 20.2802 72.7506 19.7534Z" fill="#525252"/>
<path d="M100.8 25.8196C100.8 26.0454 100.725 26.2417 100.576 26.4086C100.428 26.5755 100.237 26.6589 100.004 26.6589C99.772 26.6589 99.5813 26.5755 99.4325 26.4086C99.2837 26.2417 99.2093 26.0454 99.2093 25.8196C99.2093 25.5939 99.2837 25.3975 99.4325 25.2307C99.5813 25.0638 99.772 24.9804 100.004 24.9804C100.237 24.9804 100.428 25.0638 100.576 25.2307C100.725 25.3975 100.8 25.5939 100.8 25.8196ZM102.739 28.9264H101.706V22.7423H102.739V28.9264ZM92.583 34.3006V29.7362H93.6153V30.7669H101.706V29.7362H102.739V34.3006H92.583ZM101.706 33.2699V31.7975H93.6153V33.2699H101.706ZM93.3224 26.0552C93.3224 26.3104 93.3689 26.546 93.4619 26.762C93.5549 26.9681 93.6851 27.1448 93.8525 27.292C94.0106 27.4491 94.2012 27.5718 94.4244 27.6601C94.6476 27.7387 94.8894 27.7779 95.1499 27.7779C95.4103 27.7779 95.6521 27.7387 95.8753 27.6601C96.0985 27.5718 96.2938 27.4491 96.4612 27.292C96.6193 27.1448 96.7448 26.9681 96.8378 26.762C96.9308 26.546 96.9773 26.3104 96.9773 26.0552C96.9773 25.8 96.9308 25.5693 96.8378 25.3632C96.7448 25.1472 96.6193 24.9607 96.4612 24.8037C96.2938 24.6564 96.0985 24.5436 95.8753 24.465C95.6521 24.3767 95.4103 24.3325 95.1499 24.3325C94.8894 24.3325 94.6476 24.3767 94.4244 24.465C94.2012 24.5436 94.0106 24.6564 93.8525 24.8037C93.6851 24.9607 93.5549 25.1472 93.4619 25.3632C93.3689 25.5693 93.3224 25.8 93.3224 26.0552ZM92.304 26.0552C92.304 25.6429 92.3784 25.2699 92.5272 24.9362C92.676 24.6025 92.8806 24.3178 93.141 24.0822C93.3921 23.8466 93.6897 23.665 94.0338 23.5374C94.3872 23.4 94.7592 23.3313 95.1499 23.3313C95.5405 23.3313 95.9078 23.4 96.2519 23.5374C96.6053 23.665 96.9122 23.8466 97.1726 24.0822C97.4237 24.3178 97.6237 24.6025 97.7725 24.9362C97.9213 25.2699 97.9957 25.6429 97.9957 26.0552C97.9957 26.4675 97.9213 26.8405 97.7725 27.1742C97.6237 27.508 97.4237 27.7926 97.1726 28.0282C96.9122 28.2638 96.6053 28.4503 96.2519 28.5877C95.9078 28.7153 95.5405 28.7791 95.1499 28.7791C94.7592 28.7791 94.3872 28.7153 94.0338 28.5877C93.6897 28.4503 93.3921 28.2638 93.141 28.0282C92.8806 27.7926 92.676 27.508 92.5272 27.1742C92.3784 26.8405 92.304 26.4675 92.304 26.0552Z" fill="#525252"/>
<path d="M105.808 28.8528V27.8957H117.358V28.8528H105.808ZM115.629 31.665V30.9288H106.505V29.9571H116.661V32.6074H107.538V33.4025H116.661V34.3742H106.505V31.665H115.629ZM109.881 24.6564C109.881 25.0982 110.03 25.4515 110.328 25.7166C110.634 25.9718 111.053 26.0994 111.583 26.0994C112.113 26.0994 112.527 25.9718 112.825 25.7166C113.132 25.4515 113.285 25.0982 113.285 24.6564C113.285 24.2147 113.132 23.8663 112.825 23.611C112.527 23.346 112.113 23.2135 111.583 23.2135C111.053 23.2135 110.634 23.346 110.328 23.611C110.03 23.8663 109.881 24.2147 109.881 24.6564ZM108.863 24.6564C108.863 24.3227 108.928 24.0135 109.058 23.7288C109.198 23.4442 109.393 23.1939 109.644 22.9779C109.886 22.7718 110.169 22.6098 110.495 22.492C110.83 22.3644 111.192 22.3006 111.583 22.3006C111.974 22.3006 112.332 22.3644 112.657 22.492C112.992 22.6098 113.285 22.7718 113.536 22.9779C113.778 23.1939 113.964 23.4442 114.094 23.7288C114.234 24.0135 114.303 24.3227 114.303 24.6564C114.303 24.9902 114.234 25.3043 114.094 25.5988C113.964 25.8834 113.778 26.1288 113.536 26.335C113.285 26.5509 112.992 26.7178 112.657 26.8356C112.332 26.9534 111.974 27.0123 111.583 27.0123C111.192 27.0123 110.83 26.9534 110.495 26.8356C110.169 26.7178 109.886 26.5509 109.644 26.335C109.393 26.1288 109.198 25.8834 109.058 25.5988C108.928 25.3043 108.863 24.9902 108.863 24.6564Z" fill="#525252"/>
<path d="M156.028 23.4294H153.619V9H156.028V23.4294ZM134.285 35.9693V25.6626H157.981V35.9693H134.285ZM136.693 28.0675V33.5644H155.572V28.0675H136.693ZM161.724 16.5239C161.724 17.0507 161.551 17.5088 161.204 17.8982C160.856 18.2875 160.412 18.4822 159.869 18.4822C159.327 18.4822 158.882 18.2875 158.534 17.8982C158.187 17.5088 158.014 17.0507 158.014 16.5239C158.014 15.9971 158.187 15.5391 158.534 15.1497C158.882 14.7603 159.327 14.5656 159.869 14.5656C160.412 14.5656 160.856 14.7603 161.204 15.1497C161.551 15.5391 161.724 15.9971 161.724 16.5239ZM134.285 22.3988V13.1227H132.332V10.7178H146.589V13.1227H136.693V19.9939H147.24V22.3988H134.285Z" fill="#525252"/>
<path d="M173.559 34.0798H172.526V23.0368H173.559V34.0798ZM176 27.881C176 28.1067 175.926 28.3031 175.777 28.4699C175.628 28.6368 175.437 28.7202 175.205 28.7202C174.972 28.7202 174.782 28.6368 174.633 28.4699C174.484 28.3031 174.41 28.1067 174.41 27.881C174.41 27.6552 174.484 27.4589 174.633 27.292C174.782 27.1252 174.972 27.0417 175.205 27.0417C175.437 27.0417 175.628 27.1252 175.777 27.292C175.926 27.4589 176 27.6552 176 27.881ZM164.24 32.1656V25.3926H163.403V24.362H169.513V25.3926H165.272V31.135H169.792V32.1656H164.24Z" fill="#525252"/>
<path d="M40 21.7221C40 15.248 35.0753 10 29.0001 10C27.1097 10 25.3305 10.5087 23.7767 11.4042C20.3371 13.3857 18 17.2629 18 21.7221C18 21.8157 18.007 21.9071 18.0091 22H39.9936C39.9959 21.9074 40 21.8154 40 21.7221Z" fill="#FBAC33"/>
<path d="M33.1232 6.72764C31.6749 8.69015 29 9 29 9C29 9 30.3365 6.81735 30.0645 4.58316C29.7755 2.2117 33.7886 0 33.7886 0C33.7886 0 34.5718 4.76514 33.1232 6.72764Z" fill="#FBAC33"/>
<path d="M16.6707 21.4958C16.7605 16.358 19.7894 12.4691 24 10.2641C22.2258 9.08908 19.8694 8.0451 17.5765 8.00232C10.2096 7.86536 4.13188 13.8009 4.00186 21.26C3.99755 21.508 4.001 21.7549 4.00934 22H16.6713C16.6684 21.833 16.6676 21.6652 16.6707 21.4958Z" fill="#80C342"/>
<path d="M0.00315644 23C0.00229557 23.0812 0 23.1618 0 23.2429C0 35.259 9.8498 45 22.0001 45C34.1502 45 44 35.2593 44 23.2429C44 23.1618 43.998 23.0812 43.9971 23H0.00315644V23Z" fill="#A38056"/>
</svg>
