<svg width="32" height="32" viewBox="0 0 32 32" fill="none" xmlns="http://www.w3.org/2000/svg">
<ellipse cx="16.5" cy="17" rx="14.5" ry="15" fill="#80C342"/>
<path d="M7 9.6C7 9.44087 7.06322 9.28826 7.17574 9.17574C7.28827 9.06321 7.44088 9 7.60002 9H9.40007C9.53392 9.00004 9.6639 9.04482 9.76936 9.12723C9.87482 9.20964 9.9497 9.32494 9.98209 9.4548L10.4681 11.4H24.4005C24.4886 11.4001 24.5756 11.4196 24.6554 11.4571C24.7351 11.4946 24.8056 11.5492 24.8618 11.617C24.9181 11.6848 24.9587 11.7641 24.9808 11.8494C25.0029 11.9347 25.006 12.0238 24.9898 12.1104L23.1897 21.7104C23.164 21.8479 23.091 21.9721 22.9834 22.0615C22.8758 22.1509 22.7404 22.1999 22.6005 22.2H11.8001C11.6603 22.1999 11.5248 22.1509 11.4172 22.0615C11.3096 21.9721 11.2367 21.8479 11.2109 21.7104L9.41207 12.1284L8.93206 10.2H7.60002C7.44088 10.2 7.28827 10.1368 7.17574 10.0243C7.06322 9.91174 7 9.75913 7 9.6ZM10.7225 12.6L12.2982 21H22.1025L23.6781 12.6H10.7225ZM13.0002 22.2C12.3636 22.2 11.7532 22.4529 11.3031 22.9029C10.853 23.353 10.6001 23.9635 10.6001 24.6C10.6001 25.2365 10.853 25.847 11.3031 26.2971C11.7532 26.7471 12.3636 27 13.0002 27C13.6367 27 14.2472 26.7471 14.6973 26.2971C15.1474 25.847 15.4003 25.2365 15.4003 24.6C15.4003 23.9635 15.1474 23.353 14.6973 22.9029C14.2472 22.4529 13.6367 22.2 13.0002 22.2ZM21.4004 22.2C20.7639 22.2 20.1534 22.4529 19.7033 22.9029C19.2532 23.353 19.0004 23.9635 19.0004 24.6C19.0004 25.2365 19.2532 25.847 19.7033 26.2971C20.1534 26.7471 20.7639 27 21.4004 27C22.037 27 22.6475 26.7471 23.0976 26.2971C23.5477 25.847 23.8005 25.2365 23.8005 24.6C23.8005 23.9635 23.5477 23.353 23.0976 22.9029C22.6475 22.4529 22.037 22.2 21.4004 22.2ZM13.0002 23.4C13.3185 23.4 13.6237 23.5264 13.8487 23.7515C14.0738 23.9765 14.2002 24.2817 14.2002 24.6C14.2002 24.9183 14.0738 25.2235 13.8487 25.4485C13.6237 25.6736 13.3185 25.8 13.0002 25.8C12.6819 25.8 12.3767 25.6736 12.1516 25.4485C11.9266 25.2235 11.8001 24.9183 11.8001 24.6C11.8001 24.2817 11.9266 23.9765 12.1516 23.7515C12.3767 23.5264 12.6819 23.4 13.0002 23.4ZM21.4004 23.4C21.7187 23.4 22.0239 23.5264 22.249 23.7515C22.4741 23.9765 22.6005 24.2817 22.6005 24.6C22.6005 24.9183 22.4741 25.2235 22.249 25.4485C22.0239 25.6736 21.7187 25.8 21.4004 25.8C21.0822 25.8 20.7769 25.6736 20.5519 25.4485C20.3268 25.2235 20.2004 24.9183 20.2004 24.6C20.2004 24.2817 20.3268 23.9765 20.5519 23.7515C20.7769 23.5264 21.0822 23.4 21.4004 23.4Z" fill="white"/>
</svg>
