<svg width="24" height="24" viewBox="0 0 24 24" fill="none" xmlns="http://www.w3.org/2000/svg">
<path d="M8.39709 11.235C8.59216 11.196 8.76375 11.0812 8.87411 10.9157C8.98448 10.7502 9.02458 10.5476 8.98559 10.3525C8.9466 10.1575 8.83172 9.98588 8.66622 9.87552C8.50072 9.76515 8.29816 9.72505 8.10309 9.76404C7.20009 9.94404 6.51809 10.576 6.15509 11.423C5.79509 12.261 5.74209 13.309 6.02309 14.431C6.04503 14.5286 6.08625 14.6207 6.14431 14.7021C6.20237 14.7834 6.27611 14.8523 6.36119 14.9048C6.44627 14.9573 6.54098 14.9922 6.63975 15.0075C6.73852 15.0228 6.83936 15.0183 6.93634 14.9941C7.03332 14.9699 7.12449 14.9265 7.20448 14.8666C7.28447 14.8067 7.35168 14.7314 7.40215 14.6451C7.45262 14.5588 7.48534 14.4633 7.49838 14.3642C7.51142 14.2651 7.50452 14.1644 7.47809 14.068C7.25809 13.19 7.33009 12.488 7.53309 12.014C7.73309 11.548 8.05109 11.304 8.39709 11.234V11.235ZM5.47109 3.41904C5.42842 4.12901 5.53238 4.84016 5.77651 5.5082C6.02064 6.17625 6.3997 6.78687 6.89009 7.30204C5.93745 7.57518 5.08455 8.11891 4.43488 8.86728C3.78521 9.61565 3.36668 10.5365 3.23009 11.518C2.90094 13.8732 3.38416 16.2703 4.60009 18.314L4.95009 18.904C4.96335 18.9257 4.97771 18.9468 4.99309 18.967L6.40909 20.873C6.70901 21.277 7.09337 21.6107 7.53541 21.851C7.97746 22.0913 8.46656 22.2323 8.96867 22.2643C9.47078 22.2963 9.97382 22.2184 10.4428 22.0362C10.9117 21.854 11.3353 21.5717 11.6841 21.209C11.7249 21.1666 11.7738 21.1329 11.8279 21.1099C11.882 21.0868 11.9403 21.0749 11.9991 21.0749C12.0579 21.0749 12.1161 21.0868 12.1703 21.1099C12.2244 21.1329 12.2733 21.1666 12.3141 21.209C12.6628 21.5717 13.0864 21.854 13.5554 22.0362C14.0244 22.2184 14.5274 22.2963 15.0295 22.2643C15.5316 22.2323 16.0207 22.0913 16.4628 21.851C16.9048 21.6107 17.2892 21.277 17.5891 20.873L19.0051 18.966C19.0201 18.9458 19.0342 18.9247 19.0471 18.903L19.3981 18.313C20.6148 16.27 21.0991 13.8733 20.7711 11.518C20.6743 10.8241 20.436 10.1573 20.0711 9.55913C19.7062 8.96094 19.2224 8.44402 18.6496 8.04037C18.0769 7.63672 17.4274 7.35493 16.7413 7.21245C16.0552 7.06997 15.3472 7.06983 14.6611 7.21204L12.7601 7.60604H12.7571C12.7871 6.82604 12.9091 5.98604 13.1481 5.26804C13.4381 4.40004 13.8401 3.87804 14.2881 3.69204C14.4718 3.61539 14.6174 3.46892 14.6931 3.28486C14.7688 3.10079 14.7682 2.8942 14.6916 2.71054C14.6149 2.52688 14.4685 2.38118 14.2844 2.30551C14.1003 2.22984 13.8938 2.23039 13.7101 2.30704C12.6581 2.74604 12.0601 3.78704 11.7251 4.79304L11.6791 4.93504C11.4328 4.45919 11.1148 4.02409 10.7361 3.64504C10.2175 3.12583 9.59446 2.72272 8.90833 2.46241C8.2222 2.20209 7.48859 2.0905 6.75609 2.13504C6.4218 2.15428 6.1062 2.29554 5.86916 2.53204C5.63211 2.76853 5.49011 3.0838 5.47009 3.41804L5.47109 3.41904ZM6.96409 3.62604C7.4659 3.61155 7.96536 3.6999 8.43176 3.88563C8.89815 4.07136 9.32161 4.35056 9.67609 4.70604C10.0316 5.06051 10.3108 5.48398 10.4965 5.95037C10.6822 6.41677 10.7706 6.91623 10.7561 7.41804C10.5747 7.42296 10.3932 7.4146 10.2131 7.39304L9.59609 7.26504C9.00964 7.09008 8.47617 6.77144 8.04409 6.33804C7.68861 5.98356 7.40941 5.5601 7.22368 5.0937C7.03795 4.62731 6.94961 4.12785 6.96409 3.62604ZM9.03309 8.68004L9.23509 8.72204C9.47509 8.79004 9.71909 8.84104 9.96509 8.87404L10.9351 9.07404C11.6376 9.21958 12.3625 9.21958 13.0651 9.07404L14.9671 8.68004C15.4522 8.57949 15.9529 8.5796 16.438 8.68037C16.9231 8.78113 17.3823 8.98041 17.7873 9.26586C18.1923 9.55131 18.5344 9.91685 18.7923 10.3399C19.0503 10.7629 19.2187 11.2343 19.2871 11.725C19.5679 13.7428 19.1528 15.7959 18.1101 17.546L17.7791 18.103L16.3861 19.979C16.2161 20.208 15.9982 20.3972 15.7476 20.5334C15.497 20.6696 15.2198 20.7495 14.9352 20.7676C14.6505 20.7857 14.3654 20.7415 14.0996 20.6381C13.8338 20.5348 13.5937 20.3747 13.3961 20.169C13.2154 19.981 12.9987 19.8314 12.7588 19.7293C12.5189 19.6271 12.2608 19.5744 12.0001 19.5744C11.7393 19.5744 11.4813 19.6271 11.2414 19.7293C11.0015 19.8314 10.7847 19.981 10.6041 20.169C10.4065 20.3747 10.1664 20.5348 9.90059 20.6381C9.63479 20.7415 9.34964 20.7857 9.06502 20.7676C8.78039 20.7495 8.50313 20.6696 8.25255 20.5334C8.00197 20.3972 7.78409 20.208 7.61409 19.979L6.22109 18.103L5.89009 17.546C4.84777 15.7958 4.43298 13.7426 4.71409 11.725C4.78249 11.2344 4.95086 10.7631 5.20877 10.3401C5.46668 9.91722 5.80865 9.55173 6.21351 9.26629C6.61837 8.98085 7.0775 8.78155 7.56249 8.68071C8.04748 8.57987 8.54801 8.57964 9.03309 8.68004Z" fill="#80C342"/>
</svg>
