<svg width="237" height="158" viewBox="0 0 237 158" fill="none" xmlns="http://www.w3.org/2000/svg">
<rect width="237" height="158" fill="#80C342"/>
<path d="M147.398 65.3013C147.398 56.4858 139.835 49.3398 130.506 49.3398C127.603 49.3398 124.871 50.0325 122.485 51.2518C117.203 53.95 113.614 59.2294 113.614 65.3013C113.614 65.4287 113.625 65.5532 113.628 65.6797H147.388C147.391 65.5536 147.398 65.4283 147.398 65.3013Z" fill="white"/>
<path d="M136.223 43.0589C133.707 45.9931 129.059 46.4564 129.059 46.4564C129.059 46.4564 131.381 43.193 130.909 39.8525C130.407 36.3068 137.379 33 137.379 33C137.379 33 138.74 40.1246 136.223 43.0589Z" fill="white"/>
<path d="M111.241 64.9528C111.388 57.5453 116.358 51.9384 123.267 48.7593C120.356 47.0653 116.489 45.5601 112.727 45.4985C100.639 45.301 90.6656 53.8586 90.4523 64.6127C90.4452 64.9704 90.4509 65.3263 90.4646 65.6797H111.242C111.237 65.439 111.236 65.1969 111.241 64.9528Z" fill="white"/>
<path d="M83.6984 68.563C83.697 68.6906 83.6934 68.8174 83.6934 68.9451C83.6934 87.8443 99.4671 103.165 118.925 103.165C138.382 103.165 154.156 87.8447 154.156 68.9451C154.156 68.8174 154.153 68.6906 154.151 68.563H83.6984V68.563Z" fill="white"/>
<path d="M67.2837 129.477V119.758H68.578V128.262H78.6937V129.477H67.2837Z" fill="white" fill-opacity="0.7"/>
<path d="M82.9171 126.353V125.138H97.052V126.353H82.9171ZM90.9893 123.281C90.9893 123.57 90.8928 123.813 90.6998 124.01C90.5182 124.207 90.2797 124.305 89.9846 124.305C89.6894 124.305 89.4453 124.207 89.2523 124.01C89.0706 123.813 88.9798 123.57 88.9798 123.281C88.9798 122.992 89.0706 122.749 89.2523 122.552C89.4453 122.356 89.6894 122.257 89.9846 122.257C90.2797 122.257 90.5182 122.356 90.6998 122.552C90.8928 122.749 90.9893 122.992 90.9893 123.281Z" fill="white" fill-opacity="0.7"/>
<path d="M101.616 124.878C101.616 124.114 101.747 123.403 102.008 122.743C102.269 122.084 102.632 121.511 103.098 121.025C103.563 120.551 104.125 120.181 104.784 119.914C105.442 119.637 106.174 119.498 106.98 119.498C107.775 119.498 108.502 119.637 109.16 119.914C109.83 120.181 110.398 120.551 110.863 121.025C111.329 121.511 111.692 122.084 111.953 122.743C112.214 123.403 112.345 124.114 112.345 124.878C112.345 125.641 112.214 126.353 111.953 127.012C111.692 127.672 111.329 128.239 110.863 128.713C110.398 129.199 109.83 129.581 109.16 129.859C108.502 130.125 107.775 130.258 106.98 130.258C106.174 130.258 105.442 130.125 104.784 129.859C104.125 129.581 103.563 129.199 103.098 128.713C102.632 128.239 102.269 127.672 102.008 127.012C101.747 126.353 101.616 125.641 101.616 124.878ZM102.91 124.878C102.91 125.479 103.012 126.035 103.217 126.544C103.421 127.053 103.705 127.493 104.068 127.863C104.42 128.233 104.846 128.522 105.346 128.731C105.845 128.939 106.39 129.043 106.98 129.043C107.571 129.043 108.116 128.939 108.615 128.731C109.115 128.522 109.546 128.233 109.91 127.863C110.261 127.493 110.54 127.053 110.744 126.544C110.948 126.035 111.051 125.479 111.051 124.878C111.051 124.276 110.948 123.721 110.744 123.212C110.54 122.703 110.261 122.263 109.91 121.893C109.546 121.523 109.115 121.233 108.615 121.025C108.116 120.817 107.571 120.713 106.98 120.713C106.39 120.713 105.845 120.817 105.346 121.025C104.846 121.233 104.42 121.523 104.068 121.893C103.705 122.263 103.421 122.703 103.217 123.212C103.012 123.721 102.91 124.276 102.91 124.878Z" fill="white" fill-opacity="0.7"/>
<path d="M124.538 129.65V120.973H123.516V119.758H135.608V120.973H125.832V128.435H135.608V129.65H124.538Z" fill="white" fill-opacity="0.7"/>
<path d="M146.626 131.039H145.366V118.543H146.626V131.039ZM149.76 124.322C149.76 124.623 149.669 124.872 149.487 125.069C149.305 125.254 149.061 125.346 148.755 125.346C148.448 125.346 148.204 125.254 148.022 125.069C147.841 124.872 147.75 124.623 147.75 124.322C147.75 124.022 147.841 123.779 148.022 123.594C148.204 123.397 148.448 123.299 148.755 123.299C149.061 123.299 149.305 123.397 149.487 123.594C149.669 123.779 149.76 124.022 149.76 124.322Z" fill="white" fill-opacity="0.7"/>
<path d="M158.189 129.65V119.758H169.599V129.65H158.189ZM159.484 128.435H168.305V120.973H159.484V128.435Z" fill="white" fill-opacity="0.7"/>
</svg>
