<svg width="29" height="30" viewBox="0 0 29 30" fill="none" xmlns="http://www.w3.org/2000/svg">
<ellipse cx="14.5" cy="15" rx="14.5" ry="15" fill="#80C342"/>
<path d="M23 23.15H23.15V23V20.1667C23.15 18.9784 22.1238 17.9492 20.5738 17.2259C19.0116 16.4969 16.864 16.05 14.5 16.05C12.136 16.05 9.98842 16.4969 8.42622 17.2259C6.8762 17.9492 5.85 18.9784 5.85 20.1667V23V23.15H6H23ZM14.5 17.4833C16.5207 17.4833 18.3433 17.7988 19.6552 18.3035C20.3117 18.556 20.8326 18.853 21.1869 19.1751C21.5411 19.4972 21.7167 19.8325 21.7167 20.1667V21.7167H7.28333V20.1667C7.28333 19.8325 7.45893 19.4972 7.81313 19.1751C8.16736 18.853 8.68831 18.556 9.34477 18.3035C10.6567 17.7988 12.4793 17.4833 14.5 17.4833ZM17.4109 7.05574C16.6389 6.28372 15.5918 5.85 14.5 5.85C13.4082 5.85 12.3611 6.28372 11.5891 7.05574C10.8171 7.82777 10.3833 8.87486 10.3833 9.96667C10.3833 11.0585 10.8171 12.1056 11.5891 12.8776C12.3611 13.6496 13.4082 14.0833 14.5 14.0833C15.5918 14.0833 16.6389 13.6496 17.4109 12.8776C18.1829 12.1056 18.6167 11.0585 18.6167 9.96667C18.6167 8.87486 18.1829 7.82777 17.4109 7.05574ZM12.6026 8.06926C13.1058 7.56604 13.7883 7.28333 14.5 7.28333C15.2117 7.28333 15.8942 7.56604 16.3974 8.06926C16.9006 8.57249 17.1833 9.255 17.1833 9.96667C17.1833 10.6783 16.9006 11.3608 16.3974 11.8641C15.8942 12.3673 15.2117 12.65 14.5 12.65C13.7883 12.65 13.1058 12.3673 12.6026 11.8641C12.0994 11.3608 11.8167 10.6783 11.8167 9.96667C11.8167 9.255 12.0994 8.57249 12.6026 8.06926Z" fill="white" stroke="white" stroke-width="0.3"/>
</svg>
