<svg width="24" height="24" viewBox="0 0 18 20" fill="none" xmlns="http://www.w3.org/2000/svg">
<path d="M1.13444 6.75933V6.74584C1.13443 5.41327 1.47955 4.11055 2.12627 3.00203C2.773 1.8935 3.69234 1.02885 4.76832 0.517155C5.8443 0.00545856 7.02871 -0.130355 8.17211 0.126849C9.31552 0.384053 10.3667 1.02275 11.193 1.96236C11.8432 1.59541 12.5694 1.44113 13.2914 1.51655C14.0134 1.59198 14.7032 1.89419 15.2844 2.38978C15.8656 2.88537 16.3158 3.55506 16.585 4.32485C16.8543 5.09464 16.9322 5.93457 16.8102 6.75184C16.9896 6.77088 17.1636 6.83199 17.3214 6.93136C17.4792 7.03073 17.6174 7.16623 17.7274 7.3294C17.8374 7.49257 17.9168 7.67991 17.9606 7.87972C18.0044 8.07954 18.0118 8.28754 17.9822 8.49074C17.3897 12.5667 15.9241 15.1465 13.588 16.2319V17.2392C13.588 17.8356 13.3809 18.4075 13.0121 18.8292C12.6433 19.2509 12.1432 19.4878 11.6217 19.4878H6.37806C5.85655 19.4878 5.3564 19.2509 4.98764 18.8292C4.61888 18.4075 4.41171 17.8356 4.41171 17.2392V16.2319C2.07567 15.1465 0.610083 12.5667 0.0175539 8.49074C-0.0110425 8.29293 -0.00464824 8.09057 0.0363583 7.89564C0.0773648 7.70071 0.15215 7.51716 0.256289 7.35587C0.360427 7.19457 0.491803 7.0588 0.64264 6.9566C0.793477 6.85439 0.960711 6.78782 1.13444 6.76083V6.75933ZM2.44535 6.74584H3.75625C3.75625 5.75191 4.10154 4.79868 4.71614 4.09586C5.33075 3.39305 6.16433 2.99821 7.03351 2.99821C7.9027 2.99821 8.73628 3.39305 9.35089 4.09586C9.96549 4.79868 10.3108 5.75191 10.3108 6.74584H11.6217C11.6217 5.35433 11.1383 4.01982 10.2778 3.03587C9.41739 2.05193 8.25037 1.49915 7.03351 1.49915C5.81666 1.49915 4.64964 2.05193 3.78919 3.03587C2.92874 4.01982 2.44535 5.35433 2.44535 6.74584ZM5.06716 6.74584H8.99987C8.99987 6.14948 8.7927 5.57755 8.42394 5.15586C8.05518 4.73417 7.55503 4.49726 7.03351 4.49726C6.512 4.49726 6.01185 4.73417 5.64309 5.15586C5.27433 5.57755 5.06716 6.14948 5.06716 6.74584ZM14.0678 6.74584H15.4718C15.5708 6.30283 15.58 5.83983 15.4988 5.39212C15.4176 4.94442 15.2481 4.52382 15.0032 4.16237C14.7583 3.80093 14.4444 3.50818 14.0856 3.30643C13.7268 3.10469 13.3324 2.99927 12.9326 2.99821C12.618 2.99821 12.3191 3.06117 12.0412 3.1766C12.2732 3.60233 12.4646 4.06104 12.6114 4.54223C12.8611 4.47142 13.1235 4.486 13.366 4.58417C13.6085 4.68234 13.8204 4.85977 13.9755 5.09445C14.1306 5.32914 14.2221 5.61073 14.2385 5.9043C14.2549 6.19787 14.1955 6.49049 14.0678 6.74584ZM12.2771 16.4897H5.72261V17.2392C5.72261 17.438 5.79167 17.6287 5.91459 17.7692C6.03751 17.9098 6.20423 17.9888 6.37806 17.9888H11.6217C11.7955 17.9888 11.9622 17.9098 12.0852 17.7692C12.2081 17.6287 12.2771 17.438 12.2771 17.2392V16.4897ZM5.26117 14.9906H12.7386C14.8177 14.2261 16.1338 12.0645 16.6896 8.2449H1.31011C1.86593 12.0645 3.18208 14.2261 5.26117 14.9906Z" fill="#80C342"/>
</svg>
