<svg width="24" height="24" viewBox="0 0 24 24" fill="none" xmlns="http://www.w3.org/2000/svg">
<path d="M11.39 2.28703C10.4377 3.11281 9.71802 4.17326 9.30228 5.36313C8.88653 6.55301 8.78921 7.83092 9.01996 9.07003C7.49896 8.19403 5.81996 7.93003 3.89296 8.09003C3.76707 8.10047 3.64449 8.13571 3.53227 8.19371C3.42006 8.25171 3.32042 8.33134 3.23909 8.428C3.15777 8.52466 3.09636 8.63644 3.05841 8.75693C3.02046 8.87741 3.00671 9.00421 3.01796 9.13003C3.17496 10.856 3.96996 12.568 5.07796 13.906C4.66066 13.902 4.2436 13.9278 3.82996 13.983C3.59162 14.0145 3.37442 14.1362 3.22302 14.3229C3.07161 14.5097 2.99751 14.7473 3.01596 14.987C3.16282 16.8949 4.02438 18.6771 5.42838 19.9773C6.83239 21.2775 8.67539 21.9999 10.589 22H13.411C15.3245 21.9999 17.1675 21.2775 18.5715 19.9773C19.9755 18.6771 20.8371 16.8949 20.984 14.987C21.0022 14.7474 20.928 14.5099 20.7766 14.3232C20.6252 14.1365 20.4082 14.0148 20.17 13.983C19.7613 13.9285 19.3493 13.9028 18.937 13.906C20.044 12.567 20.839 10.856 20.997 9.13003C21.0082 9.00421 20.9945 8.87741 20.9565 8.75693C20.9185 8.63644 20.8571 8.52466 20.7758 8.428C20.6945 8.33134 20.5949 8.25171 20.4826 8.19371C20.3704 8.13571 20.2478 8.10047 20.122 8.09003C18.194 7.93003 16.506 8.19403 14.979 9.07003C15.2099 7.8311 15.1129 6.55329 14.6975 5.36343C14.2821 4.17357 13.5628 3.11302 12.611 2.28703C12.4417 2.13973 12.2248 2.05859 12.0005 2.05859C11.7761 2.05859 11.5592 2.13973 11.39 2.28703ZM12 11.727C10.9732 10.6578 10.3998 9.23291 10.3998 7.75053C10.3998 6.26815 10.9732 4.84323 12 3.77403C13.0262 4.8433 13.5993 6.26797 13.5993 7.75003C13.5993 9.2321 13.0262 10.6568 12 11.726V11.727ZM12 17.334C10.9103 15.949 9.43867 14.9137 7.76696 14.356C7.73488 14.3247 7.70008 14.2962 7.66296 14.271C6.19296 13.271 4.94396 11.427 4.58996 9.55103C6.45996 9.48903 7.92696 9.93803 9.26496 11.072C10.29 11.941 10.745 13 11.083 13.787C11.17 13.991 11.25 14.177 11.329 14.335C11.3912 14.4597 11.487 14.5646 11.6055 14.6379C11.724 14.7112 11.8606 14.75 12 14.75C12.1393 14.75 12.2759 14.7112 12.3944 14.6379C12.5129 14.5646 12.6087 14.4597 12.671 14.335C12.7584 14.1549 12.8405 13.9721 12.917 13.787C13.255 13 13.71 11.94 14.735 11.072C16.073 9.93903 17.552 9.48903 19.425 9.55103C19.07 11.427 17.821 13.271 16.351 14.271C16.3173 14.2941 16.2855 14.3198 16.256 14.348C14.5749 14.9039 13.0946 15.9424 12 17.334ZM12.644 19.04C14.036 16.71 16.646 15.26 19.422 15.417C19.1825 16.8381 18.4473 18.1284 17.3469 19.0589C16.2465 19.9894 14.852 20.5 13.411 20.5H10.589C7.58896 20.5 5.06496 18.324 4.57896 15.418C7.35396 15.26 9.96395 16.709 11.356 19.04C11.4225 19.1515 11.5168 19.2438 11.6297 19.3079C11.7426 19.3719 11.8702 19.4056 12 19.4056C12.1298 19.4056 12.2573 19.3719 12.3702 19.3079C12.4831 19.2438 12.5774 19.1515 12.644 19.04Z" fill="#80C342"/>
</svg>
