<svg width="26" height="25" viewBox="0 0 26 25" fill="none" xmlns="http://www.w3.org/2000/svg">
<path d="M23.0478 1.98471C19.6203 4.83705 16.7205 7.55228 14.0656 11.0949C12.8948 12.6574 11.5928 14.4964 10.7417 16.2328C10.2558 17.1535 9.37993 18.5921 9.08134 19.9753C7.44821 18.5144 5.69403 16.8562 3.89921 15.5574C2.61993 14.632 -1.06476 16.5187 0.435119 17.6038C3.12328 19.548 5.35887 21.9695 7.97349 24.0003C9.06712 24.8488 11.4908 23.0062 12.0604 22.2331C13.9299 19.6863 14.1855 16.573 15.548 13.7949C17.6284 9.54603 21.318 6.0558 24.9608 3.02494C27.3744 0.860487 24.8816 0.461268 23.0515 1.98471" fill="#37B34A"/>
</svg>
