<svg width="469" height="771" viewBox="0 0 469 771" fill="none" xmlns="http://www.w3.org/2000/svg">
<path d="M50.2566 207.452C55.3152 209.792 60.8142 205.723 66.195 204.285C80.6835 200.409 92.5298 215.675 99.7794 228.805C93.9411 234.956 86.4355 239.273 78.181 241.226C86.1306 250.767 91.9852 261.872 95.3653 273.82C103.724 276.512 112.38 278.174 121.142 278.769C127.747 279.252 133.729 280.219 139.507 281.163C154.801 283.643 166.873 285.597 180.9 277.073C198.857 266.165 210.972 248.162 221.422 230.34C229.123 217.189 237.157 200.28 230.885 185.959C228.855 181.332 225.278 176.855 221.831 172.528C215.182 164.208 208.32 155.598 211.026 144.723C211.888 141.75 213.156 138.91 214.796 136.284C216.154 134.141 217.213 131.822 217.943 129.392C219.704 122.113 214.398 114.663 208.352 110.497C203.916 107.437 198.879 105.43 193.541 103.293C190.706 102.155 187.763 100.975 184.949 99.6218C170.399 92.61 158.41 81.2196 150.666 67.0496C141.075 74.6827 137.059 87.3831 129.39 97.1097C125.894 101.747 121.43 105.568 116.309 108.307C113.93 109.531 111.357 110.334 108.705 110.68C107.899 110.776 101.036 110.969 100.993 109.95C101.337 117.057 101.648 124.432 98.9847 131.035C96.3211 137.637 89.7696 143.252 82.6919 142.436C78.761 141.996 75.2597 139.688 71.3503 139.065C62.9837 137.734 55.1111 144.701 52.4046 152.721C49.6981 160.74 50.8688 169.49 52.0824 177.875C57.605 175.164 63.8305 174.225 69.9075 175.186C75.9844 176.147 81.616 178.96 86.0321 183.243C78.5422 184.043 71.3634 186.669 65.1258 190.89C58.8882 195.111 53.7824 200.798 50.2566 207.452V207.452Z" fill="#AEE27D"/>
<path d="M262.651 241.93C267.333 242.274 272.156 242.338 276.817 242.392C282.112 242.467 287.557 242.531 293.024 243.014C306.868 244.249 320.325 248.168 333.332 251.957C343.964 255.049 354.962 258.259 365.96 259.902C392.57 263.817 419.73 258.915 443.289 245.945C444.492 245.269 445.695 244.582 446.887 243.873C443.547 236.412 439.101 229.466 434.762 222.52C414.989 190.785 397.386 157.708 379.772 124.674C372.995 111.942 366.207 99.209 359.849 86.2725C346.127 58.3671 334.366 29.5398 324.654 0C308.704 7.69753 313.441 33.9572 299.951 45.4122C295.172 49.4703 288.771 50.9948 282.563 51.8537C259.568 55.0744 236.251 51.0485 213.042 50.2433C193.269 49.5562 172.67 52.2509 154.315 60.045C153.896 60.2275 153.488 60.4101 153.09 60.6033C160.169 73.7458 171.225 84.313 184.677 90.7922C187.341 92.059 190.187 93.197 192.947 94.3028C198.371 96.45 203.988 98.7152 209.057 102.183C216.908 107.551 223.728 117.642 221.247 127.884C220.4 130.915 219.12 133.808 217.445 136.473C216.112 138.604 215.061 140.899 214.32 143.301C212.376 151.095 217.725 157.783 223.911 165.535C227.616 170.183 231.429 174.993 233.824 180.393C241.267 197.366 232.503 216.143 224.029 230.615C222.891 232.558 221.709 234.522 220.506 236.509C227.885 236.959 235.274 238.13 242.556 239.289C249.172 240.33 256.003 241.436 262.651 241.93Z" fill="#AEE27D"/>
<path d="M350.942 175.647C352.14 173.988 354.61 173.988 355.808 175.647L362.106 184.374C363.538 186.358 362.12 189.129 359.673 189.129H347.077C344.63 189.129 343.213 186.358 344.644 184.374L350.942 175.647Z" fill="#80C342"/>
<path d="M365.299 175.647C366.497 173.988 368.967 173.988 370.164 175.647L376.462 184.374C377.894 186.358 376.477 189.129 374.03 189.129H361.434C358.987 189.129 357.569 186.358 359.001 184.374L365.299 175.647Z" fill="#80C342"/>
<path d="M237.09 133.702C238.288 132.042 240.758 132.042 241.956 133.702L248.254 142.428C249.686 144.412 248.268 147.184 245.821 147.184H233.225C230.778 147.184 229.361 144.412 230.792 142.428L237.09 133.702Z" fill="#80C342"/>
<path d="M251.447 133.702C252.644 132.042 255.115 132.042 256.312 133.702L262.61 142.428C264.042 144.412 262.624 147.184 260.178 147.184H247.582C245.135 147.184 243.717 144.412 245.149 142.428L251.447 133.702Z" fill="#80C342"/>
<path d="M174.297 314.16C173.943 317.112 173.61 319.893 173.502 322.748C173.118 333.398 175.948 343.916 181.622 352.937C182.771 354.762 184.039 356.512 185.381 358.37C188.603 362.889 191.986 367.559 193.64 373.217C194.983 377.812 195.026 382.461 195.058 386.97C195.058 389.514 195.058 391.919 195.348 394.291C196.422 405.295 202.544 415.645 207.978 424.802C210.029 426.343 212.159 427.776 214.358 429.097C215.133 429.417 215.925 429.693 216.732 429.923C222.488 431.491 228.438 431.555 235.591 431.426C236.268 415.859 236.236 400.078 235.484 384.511L235.355 381.838C234.979 374.409 234.592 366.733 235.548 359.11C235.634 358.402 235.731 357.682 235.838 356.963C236.214 354.837 236.39 352.681 236.365 350.522C236.223 348.765 235.954 347.021 235.559 345.304C235.269 343.898 234.968 342.438 234.786 340.924C233.121 327.408 241.778 312.786 255.815 305.389C269.262 298.303 284.631 298.078 296.531 298.668C300.397 298.861 304.79 299.076 307.271 296.94C308.208 296.042 309.02 295.024 309.688 293.912L332.339 260.266C319.708 256.584 306.659 252.805 293.524 251.678C288.347 251.216 282.998 251.152 277.822 251.076C273.053 251.076 268.155 250.958 263.247 250.593C256.341 250.078 249.285 248.962 242.562 247.877C233.97 246.503 225.657 245.204 217.559 245C208.44 258.956 197.206 272.773 182.32 281.824C178.784 283.99 174.987 285.7 171.021 286.912C174.34 292.184 175.135 298.443 175.124 303.22C175.055 306.879 174.779 310.532 174.297 314.16V314.16Z" fill="#80C342"/>
<path d="M67.8026 425.973C69.6262 426.897 71.5716 427.559 73.5808 427.938C78.2313 428.507 82.6562 425.522 87.3496 422.355C89.2399 421.067 91.1946 419.746 93.2245 418.63C102.654 413.423 113.212 412.875 125.026 412.725C138.43 412.553 153.584 413.208 163.583 423.053C164.41 423.858 165.184 424.706 165.925 425.533C167.901 427.68 169.759 429.827 171.982 430.342C173.431 430.6 174.915 430.6 176.364 430.342C182.901 429.541 189.343 428.102 195.6 426.048C197.243 425.501 198.822 424.975 200.282 424.363H200.358C194.848 415.033 189.005 404.555 187.813 392.832C187.534 390.158 187.512 387.464 187.491 384.909C187.491 380.614 187.426 376.642 186.331 372.906C184.988 368.311 182.089 364.318 179.017 360.023C177.685 358.166 176.31 356.255 175.054 354.269C168.684 344.144 165.507 332.339 165.935 320.387C166.064 317.316 166.419 314.267 166.773 311.326C167.245 307.916 167.521 304.482 167.6 301.041C167.6 297.348 166.999 290.703 163.057 286.258C160.566 286.601 158.054 286.769 155.539 286.762C148.869 286.762 142.253 285.689 135.476 284.615C129.827 283.703 123.995 282.758 117.68 282.296C108.069 281.635 98.5794 279.77 89.4332 276.746C85.546 280.938 80.1723 283.442 74.4614 283.724C73.1404 272.688 62.4647 263.605 51.4023 264.099C50.629 267.792 49.8629 271.486 49.1039 275.179C44.0677 275.593 39.1875 277.126 34.8195 279.666L40.1896 291.164C28.7299 292.238 20.4707 303.682 19.0745 315.105C17.6782 326.528 21.4695 337.886 25.2071 348.772C27.8707 356.513 30.9316 364.801 37.7301 369.363C37.7835 362.368 38.8692 355.419 40.9522 348.74C44.1169 362.968 47.2889 377.193 50.4679 391.415C52.6804 401.377 54.9036 411.587 53.7544 421.722C58.0249 422.367 62.1988 423.539 66.1808 425.211L67.8026 425.973Z" fill="#AEE27D"/>
<path d="M77.0792 388.371C78.2766 386.712 80.7471 386.712 81.9445 388.371L84.5937 392.042C86.0256 394.026 84.6079 396.797 82.161 396.797H76.8627C74.4159 396.797 72.9982 394.026 74.4301 392.042L77.0792 388.371Z" fill="#80C342"/>
<path d="M87.1288 388.371C88.3262 386.712 90.7967 386.712 91.9941 388.371L94.6433 392.042C96.0752 394.026 94.6574 396.797 92.2106 396.797H86.9123C84.4655 396.797 83.0477 394.026 84.4796 392.042L87.1288 388.371Z" fill="#80C342"/>
<path d="M128.107 299.986C129.304 298.326 131.775 298.326 132.972 299.986L139.27 308.712C140.702 310.696 139.284 313.468 136.837 313.468H124.241C121.795 313.468 120.377 310.696 121.809 308.712L128.107 299.986Z" fill="#80C342"/>
<path d="M142.463 299.986C143.661 298.326 146.131 298.326 147.329 299.986L153.627 308.712C155.059 310.696 153.641 313.468 151.194 313.468H138.598C136.151 313.468 134.734 310.696 136.165 308.712L142.463 299.986Z" fill="#80C342"/>
<path d="M65.9767 530.722C71.3467 529.079 75.6428 525.515 77.5116 521.21L77.6512 520.877C78.2564 518.986 79.5475 517.389 81.2707 516.4C83.6013 515.327 86.2434 515.778 89.1217 517.882C91.2698 519.439 93.16 521.167 95.0395 522.831C97.4681 525.158 100.123 527.237 102.966 529.036C109.292 532.74 117.358 533.492 124.446 534.146L146.281 536.165C156.602 537.12 167.267 538.108 177.127 535.188C178.104 532.536 179.275 529.992 180.467 527.501C181.541 525.257 182.518 523.142 183.356 520.963C183.964 519.692 184.251 518.291 184.194 516.883C183.993 516.046 183.694 515.235 183.302 514.468C182.991 513.77 182.668 513.061 182.4 512.267C180.456 506.556 182.4 500.694 184.838 495.208C188.699 486.466 193.093 477.968 197.995 469.764C203.461 460.628 210.496 450.708 221.29 446.339C222.364 445.899 223.438 445.523 224.512 445.169C227.101 444.288 229.539 443.451 231.15 441.883C231.384 441.642 231.596 441.379 231.783 441.1C231.823 439.768 232.051 438.449 232.46 437.181L233.008 437.364C233.03 436.799 232.986 436.233 232.879 435.678C227.101 435.753 220.302 435.678 213.869 433.918C213.503 433.81 213.171 433.681 212.795 433.574C212.155 433.441 211.537 433.221 210.958 432.919C209.025 432.112 207.139 431.198 205.309 430.182L204.761 429.892L204.267 429.623C204.084 429.677 203.601 429.881 203.279 430.02L202.559 430.31C200.991 430.922 199.337 431.534 197.565 432.103C190.906 434.308 184.046 435.851 177.084 436.709C175.945 436.867 174.797 436.953 173.647 436.967C172.536 436.977 171.429 436.851 170.35 436.591C166.236 435.517 163.497 432.522 161.081 429.849C160.361 429.065 159.695 428.314 159.008 427.637C150.759 419.532 137.152 419.049 125.048 419.167C114.114 419.306 104.405 419.779 96.2747 424.266C94.5026 425.243 92.7519 426.413 90.9046 427.691C85.6849 431.212 79.767 435.206 72.7322 434.326C70.0922 433.885 67.5328 433.053 65.1389 431.856L63.6031 431.191C60.0326 429.691 56.2868 428.649 52.4548 428.088C50.0275 436.537 44.636 444.192 36.5809 447.477C48.5454 445.33 60.9288 456.763 59.7044 468.862C42.5202 472.717 32.854 490.57 25.4755 506.556L38.0415 510.442C31.5008 510.753 26.3777 515.155 22.6938 520.802C30.7569 526.14 39.8608 529.707 49.4046 531.269C55.9454 532.321 61.3691 532.139 65.9767 530.722Z" fill="#AEE27D"/>
<path d="M383.896 267.674C377.572 267.67 371.257 267.193 365.004 266.247C355.796 264.725 346.694 262.613 337.757 259.923L313.956 295.287C312.965 296.899 311.75 298.363 310.348 299.635C305.891 303.414 299.908 303.124 295.086 302.855C284.013 302.308 269.761 302.49 257.699 308.846C248.109 313.903 238.496 325.154 240.053 337.897C240.214 339.153 240.472 340.42 240.741 341.762C241.902 346.296 242.023 351.034 241.095 355.622C240.999 356.298 240.902 356.974 240.816 357.651C239.925 364.704 240.3 372.101 240.666 379.24L240.794 381.935C241.557 397.835 241.589 413.97 240.891 429.881C240.923 431.376 240.399 432.83 239.42 433.96C239.355 434.036 239.269 434.089 239.194 434.164C239.78 436.995 239.48 439.937 238.335 442.592C238.691 445.309 239.876 447.851 241.729 449.871C244.725 453.242 248.989 455.561 253.103 457.794L269.03 466.382C282.788 473.897 297.019 481.563 312.625 483.431C318.389 483.984 324.185 484.135 329.97 483.882C337.606 483.731 345.5 483.581 353.244 485.213C355.392 485.653 357.433 486.222 359.43 486.77C362.143 487.581 364.906 488.22 367.7 488.681C376.647 489.937 385.54 487.414 394.948 484.73C398.17 483.806 401.51 482.862 404.818 482.089C417.586 479.127 430.797 478.596 443.762 480.521C450.922 459.945 459.056 439.743 468.164 419.918C457.123 415.989 445.309 435.56 436.169 428.206C432.786 425.49 432.538 420.476 432.947 416.15C436.169 377.823 464.093 343.501 461.333 305.131C460.538 294.181 457.219 283.596 454.889 272.924C453.192 265.216 451.957 257.368 449.411 249.896C448.455 250.454 447.5 250.97 446.533 251.549C427.351 262.125 405.802 267.672 383.896 267.674V267.674Z" fill="#AEE27D"/>
<path d="M379.218 308.225C380.416 306.566 382.886 306.566 384.084 308.225L392.814 320.322C394.246 322.306 392.828 325.078 390.381 325.078H372.92C370.474 325.078 369.056 322.306 370.488 320.322L379.218 308.225Z" fill="#80C342"/>
<path d="M396.446 308.225C397.643 306.566 400.114 306.566 401.311 308.225L410.042 320.322C411.474 322.306 410.056 325.078 407.609 325.078H390.148C387.701 325.078 386.283 322.306 387.715 320.322L396.446 308.225Z" fill="#80C342"/>
<path d="M293.548 434.061C294.746 432.402 297.216 432.402 298.414 434.061L301.063 437.732C302.495 439.716 301.077 442.488 298.63 442.488H293.332C290.885 442.488 289.467 439.716 290.899 437.732L293.548 434.061Z" fill="#80C342"/>
<path d="M303.598 434.061C304.795 432.402 307.266 432.402 308.463 434.061L311.112 437.732C312.544 439.716 311.126 442.488 308.68 442.488H303.381C300.934 442.488 299.517 439.716 300.949 437.732L303.598 434.061Z" fill="#80C342"/>
<path d="M406.289 488.477C403.121 489.217 399.845 490.141 396.72 491.042C388.88 493.275 380.824 495.573 372.555 495.573C370.632 495.574 368.712 495.441 366.809 495.176C363.739 494.678 360.704 493.986 357.722 493.104C355.725 492.556 353.845 492.03 351.923 491.633C344.888 490.151 337.703 490.291 330.099 490.441C324.009 490.699 317.908 490.534 311.84 489.947C295.021 487.94 279.62 479.555 265.948 472.158L250.02 463.57C245.627 461.186 240.644 458.481 236.896 454.272C235.363 452.553 234.122 450.595 233.222 448.475C231.139 449.683 228.922 450.645 226.617 451.342C225.597 451.685 224.63 452.018 223.717 452.415C214.696 456.065 208.456 464.965 203.537 473.178C198.775 481.141 194.503 489.387 190.745 497.87C188.984 501.864 187.212 506.459 188.511 510.249C188.683 510.753 188.93 511.322 189.188 511.88C189.839 513.171 190.302 514.549 190.563 515.971C190.823 518.49 190.416 521.034 189.381 523.346C188.457 525.74 187.362 528.059 186.309 530.314C184.258 534.608 182.336 538.731 181.691 543.068C180.51 551.012 183.775 559.225 186.932 567.17C187.33 568.146 187.716 569.123 188.092 570.09C193.368 583.667 197.065 597.806 199.112 612.227C202.485 608.265 206.711 605.118 211.475 603.022C216.239 600.927 221.416 599.937 226.617 600.128C232.836 600.45 238.807 602.479 244.704 604.498L280.243 616.661C282.466 617.424 284.893 618.186 287.106 617.391C289.318 616.597 290.532 614.75 291.638 612.882C296.482 604.723 298.899 595.265 304.129 587.353C309.359 579.44 319.036 573.063 328.047 576.048C334.835 578.292 339.024 585.002 345.017 588.931C351.01 592.86 361.814 591.293 361.857 584.153L366.465 596.671C372.032 589.448 379.678 584.101 388.375 581.351C394.357 579.473 400.79 578.85 406.322 575.908C418.447 569.467 422.528 554.437 425.826 541.092C430.337 522.806 435.606 504.738 441.635 486.888C429.854 485.269 417.877 485.807 406.289 488.477V488.477Z" fill="#AEE27D"/>
<path d="M230.349 492.486C231.546 490.826 234.017 490.826 235.214 492.486L241.512 501.212C242.944 503.196 241.526 505.968 239.08 505.968H226.484C224.037 505.968 222.619 503.196 224.051 501.212L230.349 492.486Z" fill="#80C342"/>
<path d="M244.706 492.486C245.903 490.826 248.374 490.826 249.571 492.486L255.869 501.212C257.301 503.196 255.883 505.968 253.436 505.968H240.84C238.393 505.968 236.976 503.196 238.408 501.212L244.706 492.486Z" fill="#80C342"/>
<path d="M180.961 569.488C177.513 560.814 173.948 551.86 175.301 542.284C170.872 543.178 166.362 543.606 161.843 543.562C156.302 543.562 150.846 543.057 145.733 542.585L123.898 540.566C116.112 539.836 107.294 539.02 99.7331 534.597C96.5201 532.586 93.519 530.256 90.7758 527.64C88.9285 525.998 87.1886 524.42 85.3198 523.078C84.9441 522.784 84.5327 522.538 84.0954 522.348C83.9343 522.627 83.741 523.078 83.6014 523.421L83.4403 523.797C80.8304 529.809 75.02 534.704 67.8993 536.895C62.3144 538.612 55.9455 538.859 48.4059 537.646C38.1663 535.97 28.3888 532.178 19.6974 526.513C19.0853 527.877 18.5268 529.272 18.065 530.646C14.8429 540.212 12.9419 550.916 5.64932 557.883C4.01681 559.44 2.09433 560.857 1.35325 562.961C-0.451093 567.846 4.66122 572.183 7.79735 576.306C15.8847 586.859 11.9645 601.91 7.68996 614.493L0 636.963C1.73991 641.654 8.15178 641.804 13.1567 641.815C18.1616 641.826 24.7561 644.617 23.6713 649.502C22.898 652.991 18.7416 654.236 15.584 655.943C7.47514 660.238 4.0383 670.501 5.03714 679.626C6.03597 688.752 10.5898 697.051 15.0362 705.081C17.0339 708.667 19.2678 712.488 23.0162 714.174C30.5343 717.566 38.6001 710.47 42.8962 703.438C47.1923 696.406 51.4883 687.807 59.5434 686.132C66.2453 684.747 73.1942 688.87 79.8853 687.431C93.1924 684.565 93.1709 665.101 102.3 655.02C111.15 645.24 126.379 646.281 139.407 644.209C150.792 642.254 161.494 637.442 170.511 630.224C179.527 623.006 186.564 613.619 190.96 602.941C188.884 592.532 185.905 582.323 182.056 572.43C181.723 571.41 181.348 570.455 180.961 569.488Z" fill="#AEE27D"/>
<path d="M58.0728 629.558C59.2702 627.898 61.7407 627.898 62.9381 629.558L69.2361 638.284C70.668 640.268 69.2502 643.04 66.8034 643.04H54.2075C51.7607 643.04 50.3429 640.268 51.7748 638.284L58.0728 629.558Z" fill="#80C342"/>
<path d="M72.4295 629.558C73.6269 627.898 76.0974 627.898 77.2948 629.558L83.5927 638.284C85.0246 640.268 83.6069 643.04 81.1601 643.04H68.5642C66.1173 643.04 64.6996 640.268 66.1315 638.284L72.4295 629.558Z" fill="#80C342"/>
<path d="M130.844 556.902C132.042 555.243 134.512 555.243 135.709 556.902L138.215 560.374C139.647 562.359 138.23 565.13 135.783 565.13H130.771C128.324 565.13 126.906 562.359 128.338 560.374L130.844 556.902Z" fill="#80C342"/>
<path d="M140.725 556.902C141.922 555.243 144.393 555.243 145.59 556.902L148.096 560.374C149.528 562.359 148.11 565.13 145.663 565.13H140.651C138.205 565.13 136.787 562.359 138.219 560.374L140.725 556.902Z" fill="#80C342"/>
<path d="M36.6025 747.272C40.9953 748.561 45.678 746.081 48.8463 742.796C52.0147 739.51 54.2701 735.409 57.4384 732.124C62.2715 727.121 68.8982 724.351 75.3852 721.829C91.6566 715.505 108.615 709.88 126.079 709.955C134.027 709.955 142.307 711.34 148.719 716.031C155.131 720.723 159.094 729.408 156.387 736.869C153.509 744.792 144.777 748.679 136.894 751.642C129.011 754.605 120.902 757.665 112.89 760.628C108.11 762.388 103.224 764.17 98.0899 763.956C94.0838 763.784 90.1315 762.367 86.1469 762.764C78.4677 763.526 72.1202 770.773 64.4518 769.935C54.6353 768.862 50.0707 757.138 39.9642 756.795C37.9988 756.731 38.1169 755.721 37.8162 753.886L36.6025 747.272Z" fill="#AEE27D"/>
<path d="M121.484 721.371C122.681 719.712 125.151 719.712 126.349 721.371L128.187 723.918C129.619 725.902 128.201 728.674 125.754 728.674H122.078C119.631 728.674 118.213 725.902 119.645 723.918L121.484 721.371Z" fill="#80C342"/>
<path d="M130.576 721.371C131.773 719.712 134.244 719.712 135.441 721.371L137.28 723.918C138.712 725.902 137.294 728.674 134.847 728.674H131.17C128.724 728.674 127.306 725.902 128.738 723.918L130.576 721.371Z" fill="#80C342"/>
<path d="M307.152 87.0531C308.353 85.5058 310.69 85.5058 311.891 87.0531L317.456 94.2225C318.986 96.1935 317.582 99.062 315.086 99.062H303.956C301.461 99.062 300.057 96.1935 301.587 94.2225L307.152 87.0531Z" fill="#80C342"/>
<path d="M321.152 87.0531C322.353 85.5058 324.69 85.5058 325.891 87.0531L331.456 94.2225C332.986 96.1935 331.582 99.062 329.086 99.062H317.956C315.461 99.062 314.057 96.1935 315.587 94.2225L321.152 87.0531Z" fill="#80C342"/>
</svg>
