<svg width="54" height="68" viewBox="0 0 54 68" fill="none" xmlns="http://www.w3.org/2000/svg">
<path d="M53.1809 25.5184C53.1809 37.1346 36.9774 57.8152 29.8727 66.3479C28.1693 68.3814 25.0117 68.3814 23.3082 66.3479C16.0789 57.8152 0 37.1346 0 25.5184C0 11.4248 11.9048 0 26.5905 0C41.2706 0 53.1809 11.4248 53.1809 25.5184Z" fill="#FBAC33"/>
<ellipse cx="26.2159" cy="23.6381" rx="14.2315" ry="13.6098" fill="white"/>
<path d="M33.3731 23.5354C33.3731 21.1647 31.5697 19.2429 29.345 19.2429C28.6528 19.2429 28.0013 19.4292 27.4323 19.7571C26.1727 20.4827 25.3169 21.9025 25.3169 23.5354C25.3169 23.5697 25.3195 23.6032 25.3202 23.6372H33.3707C33.3716 23.6033 33.3731 23.5696 33.3731 23.5354Z" fill="#FBAC33"/>
<path d="M30.8549 18.0447C30.3245 18.7633 29.345 18.8768 29.345 18.8768C29.345 18.8768 29.8344 18.0775 29.7348 17.2594C29.629 16.391 31.0985 15.5811 31.0985 15.5811C31.0985 15.5811 31.3853 17.326 30.8549 18.0447Z" fill="#FBAC33"/>
<path d="M24.8303 23.4526C24.8632 21.5711 25.9724 20.147 27.5143 19.3396C26.8646 18.9093 26.0017 18.527 25.162 18.5113C22.4643 18.4612 20.2387 20.6347 20.1911 23.3662C20.1895 23.457 20.1908 23.5474 20.1939 23.6372H24.8305C24.8295 23.576 24.8292 23.5146 24.8303 23.4526Z" fill="#80C342"/>
<path d="M18.7267 24.0027C18.7264 24.0324 18.7256 24.0619 18.7256 24.0916C18.7256 28.4918 22.3325 32.0589 26.7818 32.0589C31.2311 32.0589 34.838 28.4919 34.838 24.0916C34.838 24.0619 34.8373 24.0324 34.8369 24.0027H18.7267Z" fill="#A38056"/>
</svg>
