<svg width="35" height="40" viewBox="0 0 35 40" fill="none" xmlns="http://www.w3.org/2000/svg">
<path d="M17.5 2.5C19.1576 2.5 20.7473 3.15848 21.9194 4.33058C23.0915 5.50269 23.75 7.0924 23.75 8.75V10H11.25V8.75C11.25 7.0924 11.9085 5.50269 13.0806 4.33058C14.2527 3.15848 15.8424 2.5 17.5 2.5ZM26.25 10V8.75C26.25 6.42936 25.3281 4.20376 23.6872 2.56282C22.0462 0.921872 19.8206 0 17.5 0C15.1794 0 12.9538 0.921872 11.3128 2.56282C9.67187 4.20376 8.75 6.42936 8.75 8.75V10H0V35C0 36.3261 0.526784 37.5979 1.46447 38.5355C2.40215 39.4732 3.67392 40 5 40H30C31.3261 40 32.5979 39.4732 33.5355 38.5355C34.4732 37.5979 35 36.3261 35 35V10H26.25ZM2.5 12.5H32.5V35C32.5 35.663 32.2366 36.2989 31.7678 36.7678C31.2989 37.2366 30.663 37.5 30 37.5H5C4.33696 37.5 3.70107 37.2366 3.23223 36.7678C2.76339 36.2989 2.5 35.663 2.5 35V12.5Z" fill="#959595"/>
</svg>
