<svg width="35" height="35" viewBox="0 0 35 35" fill="none" xmlns="http://www.w3.org/2000/svg">
<path d="M17.5 21C27.1647 21 35 24.6563 35 29.1667V35H0V29.1667C0 24.6563 7.83533 21 17.5 21ZM32.6667 29.1667C32.6667 25.9467 25.8767 23.3333 17.5 23.3333C9.12333 23.3333 2.33333 25.9467 2.33333 29.1667V32.6667H32.6667V29.1667ZM17.5 0C19.6659 0 21.7432 0.860415 23.2747 2.39196C24.8063 3.92351 25.6667 6.00073 25.6667 8.16667C25.6667 10.3326 24.8063 12.4098 23.2747 13.9414C21.7432 15.4729 19.6659 16.3333 17.5 16.3333C15.3341 16.3333 13.2568 15.4729 11.7253 13.9414C10.1937 12.4098 9.33333 10.3326 9.33333 8.16667C9.33333 6.00073 10.1937 3.92351 11.7253 2.39196C13.2568 0.860415 15.3341 0 17.5 0ZM17.5 2.33333C15.9529 2.33333 14.4692 2.94792 13.3752 4.04188C12.2812 5.13584 11.6667 6.61957 11.6667 8.16667C11.6667 9.71376 12.2812 11.1975 13.3752 12.2915C14.4692 13.3854 15.9529 14 17.5 14C19.0471 14 20.5308 13.3854 21.6248 12.2915C22.7188 11.1975 23.3333 9.71376 23.3333 8.16667C23.3333 6.61957 22.7188 5.13584 21.6248 4.04188C20.5308 2.94792 19.0471 2.33333 17.5 2.33333Z" fill="#959595"/>
</svg>
