<svg width="32" height="32" viewBox="0 0 32 32" fill="none" xmlns="http://www.w3.org/2000/svg">
<ellipse cx="16.5" cy="17" rx="14.5" ry="15" fill="#80C342"/>
<path d="M6 10V11.3258H18.4688V21.2689H14.4289C14.1362 20.1294 13.1216 19.2803 11.9062 19.2803C10.6909 19.2803 9.67631 20.1294 9.38363 21.2689H8.625V17.9545H7.3125V22.5947H9.38363C9.67631 23.7342 10.6909 24.5833 11.9062 24.5833C13.1216 24.5833 14.1362 23.7342 14.4289 22.5947H19.8836C20.1763 23.7342 21.1909 24.5833 22.4062 24.5833C23.6216 24.5833 24.6362 23.7342 24.9289 22.5947H27V17.1883L26.9587 17.0842L25.6462 13.1069L25.5037 12.6515H19.7812V10H6ZM6.65625 12.6515V13.9773H12.5625V12.6515H6.65625ZM19.7812 13.9773H24.5594L25.6875 17.3745V21.2689H24.9289C24.6362 20.1294 23.6216 19.2803 22.4062 19.2803C21.1909 19.2803 20.1763 20.1294 19.8836 21.2689H19.7812V13.9773ZM7.3125 15.303V16.6288H11.25V15.303H7.3125ZM11.9062 20.6061C12.6393 20.6061 13.2188 21.1914 13.2188 21.9318C13.2188 22.6723 12.6393 23.2576 11.9062 23.2576C11.1732 23.2576 10.5938 22.6723 10.5938 21.9318C10.5938 21.1914 11.1732 20.6061 11.9062 20.6061ZM22.4062 20.6061C23.1393 20.6061 23.7188 21.1914 23.7188 21.9318C23.7188 22.6723 23.1393 23.2576 22.4062 23.2576C21.6732 23.2576 21.0938 22.6723 21.0938 21.9318C21.0938 21.1914 21.6732 20.6061 22.4062 20.6061Z" fill="white"/>
</svg>
