<svg width="43" height="48" viewBox="0 0 43 48" fill="none" xmlns="http://www.w3.org/2000/svg">
<path d="M20 10V1M20 1L15 6.25M20 1L25 6.25" stroke="#959595" stroke-width="2" stroke-linecap="round" stroke-linejoin="round"/>
<path d="M20.3333 45.1667C27.457 45.1667 34.6667 43.1629 34.6667 39.3333V21.8333C34.6667 18.0038 27.457 16 20.3333 16C13.2097 16 6 18.0038 6 21.8333V39.3333C6 43.1629 13.2097 45.1667 20.3333 45.1667ZM20.3333 42.25C13.6648 42.25 9.58333 40.3615 9.58333 39.3333V37.4842C12.3443 38.7062 16.3505 39.3333 20.3333 39.3333C24.3162 39.3333 28.3224 38.7062 31.0833 37.4842V39.3333C31.0833 40.3615 27.0019 42.25 20.3333 42.25ZM20.3333 18.9167C27.0019 18.9167 31.0833 20.8052 31.0833 21.8333C31.0833 22.8615 27.0019 24.75 20.3333 24.75C13.6648 24.75 9.58333 22.8615 9.58333 21.8333C9.58333 20.8052 13.6648 18.9167 20.3333 18.9167ZM9.58333 25.8175C12.3443 27.0396 16.3505 27.6667 20.3333 27.6667C24.3162 27.6667 28.3224 27.0396 31.0833 25.8175V27.6667C31.0833 28.6948 27.0019 30.5833 20.3333 30.5833C13.6648 30.5833 9.58333 28.6948 9.58333 27.6667V25.8175ZM9.58333 31.6508C12.3443 32.8729 16.3505 33.5 20.3333 33.5C24.3162 33.5 28.3224 32.8729 31.0833 31.6508V33.5C31.0833 34.5281 27.0019 36.4167 20.3333 36.4167C13.6648 36.4167 9.58333 34.5281 9.58333 33.5V31.6508Z" fill="#959595"/>
</svg>
