<svg width="120" height="40" viewBox="0 0 202 103" fill="none" xmlns="http://www.w3.org/2000/svg">
<path d="M0 41.8018H7.97456V64.4101V65.0106C7.97456 65.0106 9.47701 68.7798 12.7925 68.9318V41.8018H20.3192V78.279C20.3192 78.279 16.5559 86.7218 6.17595 84.4574V80.3843C6.17595 80.3843 13.7243 82.2797 12.4603 75.4068C12.4603 75.4068 3.4672 75.4068 0.00722281 66.812V41.8018H0Z" fill="#959595"/>
<path d="M64.0277 51.5757H71.0271C71.0271 51.5757 72.3851 41.8017 61.9979 41.8017C61.9979 41.8017 51.3869 41.4183 51.3869 51.5757C51.3869 51.5757 51.1629 54.39 55.338 57.6673L63.1248 64.2219C63.1248 64.2219 66.2886 71.3409 59.3975 70.5523C59.3975 70.5523 58.7186 70.0965 58.8341 68.5193V66.4864H52.4054C52.4054 66.4864 50.7151 75.5297 57.4834 75.9855H64.5911C64.5911 75.9855 71.1355 74.6254 70.3481 66.9422C70.3481 66.9422 71.3666 60.3876 64.815 56.5387C64.815 56.5387 57.4761 54.05 59.6215 48.964C59.6287 48.964 64.0277 45.4841 64.0277 51.5757Z" fill="#959595"/>
<path d="M46.5326 63.9987V48.9651C46.5326 48.9651 44.5029 41.8027 36.3766 41.8027C36.3766 41.8027 29.3772 42.4032 26.6685 49.3051V70.1048C26.6685 70.1048 29.3772 76.9994 33.7762 76.9994H39.6488C39.6488 76.9994 46.5326 74.5107 46.5326 67.5003H39.7644C39.7644 67.5003 40.2194 71.0019 36.2683 71.0019C36.2683 71.0019 34.2385 70.6618 34.2385 68.9689V63.9987H46.5326ZM33.6679 58.1169V49.8694C33.6679 47.6049 36.6005 47.7207 36.6005 47.7207C39.5332 47.7207 39.5332 49.5294 39.5332 49.5294V58.1241H33.6679V58.1169Z" fill="#959595"/>
<path d="M162.901 74.8494V49.3038C159.852 45.3464 158.162 49.3038 158.162 49.3038V74.9651L156.689 76.318H150.144L148.786 75.2979V47.7194C149.805 43.0819 157.476 41.8014 157.476 41.8014C161.088 40.8609 164.389 41.4397 167.069 42.4308C160.741 25.2702 144.308 13.0146 124.971 13.0146C104.558 13.0146 87.3663 26.652 81.8982 45.3175C84.9826 41.6712 90.4145 41.8014 90.4145 41.8014C100.802 41.8014 99.4437 51.5754 99.4437 51.5754H92.4443C92.4443 45.4838 88.0453 48.9637 88.0453 48.9637C85.8999 54.0497 93.2388 56.5384 93.2388 56.5384C99.7832 60.38 98.7719 66.9419 98.7719 66.9419C99.5592 74.6323 93.0149 75.9852 93.0149 75.9852H85.9071C84.9175 75.9201 84.1519 75.6307 83.4945 75.2545C90.2484 91.5398 106.27 102.999 124.978 102.999C143.275 102.999 158.978 92.0317 165.978 76.318H164.367L162.901 74.8494ZM116.57 74.9073L115.154 76.318H108.047L106.689 74.9579V48.3994L103.171 47.2708C101.798 46.4822 103.171 44.1961 103.171 44.1961L105.562 41.8014H116.563V74.9073H116.57ZM116.628 37.5981H107.996L106.696 36.2958V31.6656H116.628V37.5981ZM143.145 78.9153C141.902 86.3742 128.922 85.5856 128.922 85.5856V79.7038C135.806 80.4924 135.019 75.9707 135.019 75.9707H130.844C130.641 75.9635 130.439 75.9418 130.244 75.9056C125.65 75.1532 121.699 68.396 121.699 68.396V54.3897C121.699 45.1221 129.262 42.6334 129.262 42.6334H143.145V78.9153V78.9153Z" fill="#959595"/>
<path d="M87.2579 68.5186C87.1423 70.1029 87.8213 70.5515 87.8213 70.5515C94.7052 71.3401 91.5486 64.2212 91.5486 64.2212L83.7618 57.6666C81.7537 56.0894 80.7714 54.628 80.2874 53.5283C80.1429 55.0042 80.0635 56.4945 80.0635 58.0066C80.0635 60.9077 80.3669 63.7364 80.8869 66.4856H87.2651V68.5186H87.2579Z" fill="#959595"/>
<path d="M132.729 69.0833C134.137 69.0833 135.286 67.7665 135.286 66.146V52.2771C135.286 50.6493 134.137 49.3398 132.729 49.3398C131.313 49.3398 130.172 50.6566 130.172 52.2771V66.146C130.172 67.7665 131.313 69.0833 132.729 69.0833Z" fill="#959595"/>
<path d="M198.049 14.1148H187.619V3.66798C187.619 1.64227 185.437 0 182.75 0C180.056 0 177.882 1.64227 177.882 3.66798V14.1148H167.451C165.429 14.1148 163.789 16.2997 163.789 18.991C163.789 21.6895 165.429 23.8672 167.451 23.8672H177.882V34.314C177.882 36.3397 180.056 37.982 182.75 37.982C185.437 37.982 187.619 36.3397 187.619 34.314V23.8672H198.049C200.072 23.8672 201.712 21.6895 201.712 18.991C201.712 16.2997 200.072 14.1148 198.049 14.1148Z" fill="#959595"/>
</svg>
